<mxfile host="app.diagrams.net" modified="2022-11-23T20:12:03.925Z" agent="5.0 (Windows NT 10.0; Win64; x64) AppleWebKit/537.36 (KHTML, like Gecko) Chrome/107.0.0.0 Safari/537.36" etag="4kpRUo6BnNcikPMAAHOQ" version="20.5.3" type="github" pages="3">
  <diagram id="_FBF3VUCBobr670qvWK1" name="PÃ¡gina-2">
    <mxGraphModel dx="1021" dy="529" grid="1" gridSize="10" guides="1" tooltips="1" connect="1" arrows="1" fold="1" page="1" pageScale="1" pageWidth="827" pageHeight="1169" math="0" shadow="0">
      <root>
        <mxCell id="0" />
        <mxCell id="1" parent="0" />
      </root>
    </mxGraphModel>
  </diagram>
  <diagram name="Backlog" id="Zu7rY1sjtOhyLMW4A7iL">
    <mxGraphModel dx="4318" dy="2259" grid="1" gridSize="10" guides="1" tooltips="1" connect="1" arrows="1" fold="1" page="1" pageScale="1" pageWidth="827" pageHeight="1169" math="0" shadow="0">
      <root>
        <mxCell id="0" />
        <mxCell id="1" parent="0" />
        <mxCell id="pmU2OdIE_TK1hYzH9fsG-2" style="edgeStyle=orthogonalEdgeStyle;rounded=0;orthogonalLoop=1;jettySize=auto;html=1;entryX=0.5;entryY=0;entryDx=0;entryDy=0;fontColor=#000000;shadow=0;" parent="1" source="0h9gTOIGsW0tNShwWLxz-5" target="0h9gTOIGsW0tNShwWLxz-2" edge="1">
          <mxGeometry relative="1" as="geometry">
            <Array as="points">
              <mxPoint x="-956" y="-640" />
              <mxPoint x="-1290" y="-640" />
            </Array>
          </mxGeometry>
        </mxCell>
        <mxCell id="0h9gTOIGsW0tNShwWLxz-5" value="&lt;font style=&quot;font-size: 40px;&quot;&gt;MailingDB&lt;/font&gt;" style="shape=process;whiteSpace=wrap;html=1;backgroundOutline=1;fontSize=18;shadow=0;" parent="1" vertex="1">
          <mxGeometry x="-1170" y="-910" width="427" height="210" as="geometry" />
        </mxCell>
        <mxCell id="0h9gTOIGsW0tNShwWLxz-3" value="&lt;font style=&quot;&quot;&gt;&lt;font style=&quot;font-size: 38px;&quot;&gt;API-AlwaysOn&lt;/font&gt;&lt;br style=&quot;font-size: 22px;&quot;&gt;&lt;/font&gt;" style="ellipse;whiteSpace=wrap;html=1;aspect=fixed;fontSize=22;shadow=0;" parent="1" vertex="1">
          <mxGeometry x="-1165" y="747" width="340" height="340" as="geometry" />
        </mxCell>
        <mxCell id="pmU2OdIE_TK1hYzH9fsG-35" style="edgeStyle=orthogonalEdgeStyle;rounded=0;orthogonalLoop=1;jettySize=auto;html=1;fontSize=20;fontColor=#000000;shadow=0;" parent="1" source="0h9gTOIGsW0tNShwWLxz-2" edge="1">
          <mxGeometry relative="1" as="geometry">
            <Array as="points">
              <mxPoint x="-1290" y="20" />
              <mxPoint x="-1635" y="20" />
            </Array>
            <mxPoint x="-1635" y="99.99999999999977" as="targetPoint" />
          </mxGeometry>
        </mxCell>
        <mxCell id="pmU2OdIE_TK1hYzH9fsG-36" style="edgeStyle=orthogonalEdgeStyle;rounded=0;orthogonalLoop=1;jettySize=auto;html=1;exitX=0.5;exitY=1;exitDx=0;exitDy=0;fontSize=20;fontColor=#000000;shadow=0;" parent="1" source="0h9gTOIGsW0tNShwWLxz-2" target="0h9gTOIGsW0tNShwWLxz-416" edge="1">
          <mxGeometry relative="1" as="geometry">
            <Array as="points">
              <mxPoint x="-1290" y="20" />
              <mxPoint x="-995" y="20" />
            </Array>
          </mxGeometry>
        </mxCell>
        <mxCell id="0h9gTOIGsW0tNShwWLxz-2" value="&lt;p style=&quot;line-height: 100%;&quot;&gt;&lt;font style=&quot;font-size: 20px;&quot;&gt;&lt;b style=&quot;&quot;&gt;&lt;font color=&quot;#006600&quot;&gt;Authorize(JWT)&lt;/font&gt;&lt;br&gt;&lt;br&gt;&lt;/b&gt;&lt;/font&gt;&lt;/p&gt;&lt;p style=&quot;line-height: 100%;&quot;&gt;&lt;font style=&quot;font-size: 38px;&quot;&gt;API-Mailing&lt;/font&gt;&lt;/p&gt;" style="ellipse;whiteSpace=wrap;html=1;aspect=fixed;verticalAlign=middle;shadow=0;" parent="1" vertex="1">
          <mxGeometry x="-1460" y="-540" width="340" height="340" as="geometry" />
        </mxCell>
        <mxCell id="0h9gTOIGsW0tNShwWLxz-416" value="MailSender" style="swimlane;childLayout=stackLayout;horizontal=1;startSize=30;horizontalStack=0;rounded=1;fontSize=20;fontStyle=1;strokeWidth=2;resizeParent=0;resizeLast=1;shadow=0;dashed=0;align=center;" parent="1" vertex="1">
          <mxGeometry x="-1210" y="100" width="430" height="245" as="geometry" />
        </mxCell>
        <mxCell id="0h9gTOIGsW0tNShwWLxz-417" value="&lt;ul&gt;&lt;li&gt;&lt;font&gt;POST: SendSinglesColMail()&lt;/font&gt;&lt;/li&gt;&lt;li&gt;&lt;font&gt;POST: SendDoubleColMail()&lt;/font&gt;&lt;/li&gt;&lt;li&gt;&lt;font&gt;POST:&amp;nbsp;SendBirthdayNotificationMail()&lt;/font&gt;&lt;/li&gt;&lt;li&gt;&lt;font&gt;POST: SendBirthdayMail()&lt;/font&gt;&lt;/li&gt;&lt;li&gt;POST:&amp;nbsp;SendTableMail()&amp;nbsp;&lt;/li&gt;&lt;li&gt;POST:&amp;nbsp;SendDataTableMail()&lt;/li&gt;&lt;/ul&gt;" style="text;html=1;align=left;verticalAlign=middle;resizable=0;points=[];autosize=1;strokeColor=none;fillColor=none;fontSize=22;container=1;fontColor=#000000;shadow=0;" parent="0h9gTOIGsW0tNShwWLxz-416" vertex="1">
          <mxGeometry y="30" width="430" height="215" as="geometry" />
        </mxCell>
        <mxCell id="pmU2OdIE_TK1hYzH9fsG-12" style="edgeStyle=orthogonalEdgeStyle;rounded=0;orthogonalLoop=1;jettySize=auto;html=1;fontSize=22;fontColor=#000000;shadow=0;" parent="1" source="pmU2OdIE_TK1hYzH9fsG-4" target="0h9gTOIGsW0tNShwWLxz-2" edge="1">
          <mxGeometry relative="1" as="geometry">
            <Array as="points">
              <mxPoint x="-1560" y="-640" />
              <mxPoint x="-1290" y="-640" />
            </Array>
          </mxGeometry>
        </mxCell>
        <mxCell id="pmU2OdIE_TK1hYzH9fsG-13" value="JWT" style="edgeLabel;html=1;align=center;verticalAlign=middle;resizable=0;points=[];fontSize=22;fontColor=#000000;shadow=0;" parent="pmU2OdIE_TK1hYzH9fsG-12" vertex="1" connectable="0">
          <mxGeometry x="-0.078" y="5" relative="1" as="geometry">
            <mxPoint as="offset" />
          </mxGeometry>
        </mxCell>
        <mxCell id="pmU2OdIE_TK1hYzH9fsG-4" value="&lt;p style=&quot;line-height: 100%;&quot;&gt;&lt;font style=&quot;font-size: 38px;&quot;&gt;API-Token&lt;/font&gt;&lt;/p&gt;&lt;p style=&quot;line-height: 100%;&quot;&gt;&lt;font style=&quot;font-size: 20px;&quot;&gt;RequestToken(User,Pass)&lt;/font&gt;&lt;/p&gt;" style="ellipse;whiteSpace=wrap;html=1;aspect=fixed;verticalAlign=middle;shadow=0;" parent="1" vertex="1">
          <mxGeometry x="-1690" y="-930" width="250" height="250" as="geometry" />
        </mxCell>
        <mxCell id="pmU2OdIE_TK1hYzH9fsG-16" style="edgeStyle=orthogonalEdgeStyle;rounded=0;orthogonalLoop=1;jettySize=auto;html=1;fontSize=20;fontColor=#000000;entryX=0;entryY=0.5;entryDx=0;entryDy=0;shadow=0;" parent="1" source="pmU2OdIE_TK1hYzH9fsG-9" target="pmU2OdIE_TK1hYzH9fsG-4" edge="1">
          <mxGeometry relative="1" as="geometry">
            <mxPoint x="-1740" y="-740" as="targetPoint" />
            <Array as="points">
              <mxPoint x="-1740" y="-800" />
            </Array>
          </mxGeometry>
        </mxCell>
        <mxCell id="pmU2OdIE_TK1hYzH9fsG-17" value="User, Pass" style="edgeLabel;html=1;align=center;verticalAlign=middle;resizable=0;points=[];fontSize=20;fontColor=#000000;shadow=0;" parent="pmU2OdIE_TK1hYzH9fsG-16" vertex="1" connectable="0">
          <mxGeometry x="-0.4542" y="-5" relative="1" as="geometry">
            <mxPoint y="-1" as="offset" />
          </mxGeometry>
        </mxCell>
        <mxCell id="pmU2OdIE_TK1hYzH9fsG-9" value="Actor" style="shape=umlActor;verticalLabelPosition=bottom;verticalAlign=top;html=1;outlineConnect=0;fontColor=#000000;shadow=0;" parent="1" vertex="1">
          <mxGeometry x="-1780" y="-540" width="80" height="140" as="geometry" />
        </mxCell>
        <mxCell id="rrqdZ66hdgXrBWow0b3z-1" value="CRUD MAILING" style="shape=table;childLayout=tableLayout;startSize=40;collapsible=0;recursiveResize=0;expand=0;fontStyle=1;fontSize=22;shadow=0;" vertex="1" parent="1">
          <mxGeometry x="-1820" y="90" width="380" height="997" as="geometry" />
        </mxCell>
        <mxCell id="rrqdZ66hdgXrBWow0b3z-2" value="APLICATIONS" style="shape=tableRow;horizontal=0;startSize=40;swimlaneHead=0;swimlaneBody=0;top=0;left=0;bottom=0;right=0;dropTarget=0;fillColor=none;collapsible=0;recursiveResize=0;expand=0;fontStyle=1;fontSize=19;shadow=0;" vertex="1" parent="rrqdZ66hdgXrBWow0b3z-1">
          <mxGeometry y="40" width="380" height="150" as="geometry" />
        </mxCell>
        <mxCell id="rrqdZ66hdgXrBWow0b3z-3" value="" style="swimlane;swimlaneHead=0;swimlaneBody=0;fontStyle=0;connectable=0;fillColor=none;startSize=0;collapsible=0;recursiveResize=0;expand=0;fontStyle=1;fontSize=19;shadow=0;" vertex="1" parent="rrqdZ66hdgXrBWow0b3z-2">
          <mxGeometry x="40" width="340" height="150" as="geometry">
            <mxRectangle width="340" height="150" as="alternateBounds" />
          </mxGeometry>
        </mxCell>
        <mxCell id="vhoSmDUoAUvr8L5RxzBO-6" value="&lt;ul style=&quot;font-size: 22px;&quot;&gt;&lt;li&gt;&lt;font style=&quot;font-size: 22px;&quot;&gt;GETAPLICATION&lt;b&gt;[&lt;/b&gt;null &lt;b&gt;|&lt;/b&gt; Id&lt;b&gt;]&lt;/b&gt;&lt;/font&gt;&lt;/li&gt;&lt;li&gt;&lt;font style=&quot;font-size: 22px;&quot;&gt;POSTAPLICATION(Id)&lt;/font&gt;&lt;/li&gt;&lt;li&gt;&lt;font style=&quot;font-size: 22px;&quot;&gt;PUTAPLICATION(Id)&lt;/font&gt;&lt;/li&gt;&lt;li&gt;&lt;font style=&quot;font-size: 22px;&quot;&gt;DELETEAPLICATION(Id)&lt;/font&gt;&lt;/li&gt;&lt;/ul&gt;" style="text;strokeColor=none;fillColor=none;html=1;whiteSpace=wrap;verticalAlign=middle;overflow=hidden;fontSize=19;shadow=0;" vertex="1" parent="rrqdZ66hdgXrBWow0b3z-3">
          <mxGeometry width="340" height="150" as="geometry" />
        </mxCell>
        <mxCell id="rrqdZ66hdgXrBWow0b3z-6" value="MODULES" style="shape=tableRow;horizontal=0;startSize=40;swimlaneHead=0;swimlaneBody=0;top=0;left=0;bottom=0;right=0;dropTarget=0;fillColor=none;collapsible=0;recursiveResize=0;expand=0;fontStyle=1;fontSize=19;shadow=0;" vertex="1" parent="rrqdZ66hdgXrBWow0b3z-1">
          <mxGeometry y="190" width="380" height="160" as="geometry" />
        </mxCell>
        <mxCell id="rrqdZ66hdgXrBWow0b3z-7" value="" style="swimlane;swimlaneHead=0;swimlaneBody=0;fontStyle=0;connectable=0;fillColor=none;startSize=0;collapsible=0;recursiveResize=0;expand=0;fontStyle=1;fontSize=19;shadow=0;" vertex="1" parent="rrqdZ66hdgXrBWow0b3z-6">
          <mxGeometry x="40" width="340" height="160" as="geometry">
            <mxRectangle width="340" height="160" as="alternateBounds" />
          </mxGeometry>
        </mxCell>
        <mxCell id="vhoSmDUoAUvr8L5RxzBO-7" value="&lt;ul style=&quot;font-size: 22px;&quot;&gt;&lt;li&gt;&lt;font style=&quot;font-size: 22px;&quot;&gt;GETMODULE&lt;b&gt;[&lt;/b&gt;null &lt;b&gt;|&lt;/b&gt; Id&lt;b&gt;]&lt;/b&gt;&lt;/font&gt;&lt;/li&gt;&lt;li&gt;&lt;font style=&quot;font-size: 22px;&quot;&gt;POSTMODULE(Id)&lt;/font&gt;&lt;/li&gt;&lt;li&gt;&lt;font style=&quot;font-size: 22px;&quot;&gt;PUTMODULE(Id)&lt;/font&gt;&lt;/li&gt;&lt;li&gt;&lt;font style=&quot;font-size: 22px;&quot;&gt;DELETEMODULE(Id)&lt;/font&gt;&lt;/li&gt;&lt;/ul&gt;" style="text;strokeColor=none;fillColor=none;html=1;whiteSpace=wrap;verticalAlign=middle;overflow=hidden;fontSize=19;shadow=0;" vertex="1" parent="rrqdZ66hdgXrBWow0b3z-7">
          <mxGeometry width="340" height="160" as="geometry" />
        </mxCell>
        <mxCell id="rrqdZ66hdgXrBWow0b3z-10" value="PROCESS" style="shape=tableRow;horizontal=0;startSize=40;swimlaneHead=0;swimlaneBody=0;top=0;left=0;bottom=0;right=0;dropTarget=0;fillColor=none;collapsible=0;recursiveResize=0;expand=0;fontStyle=1;fontSize=19;shadow=0;" vertex="1" parent="rrqdZ66hdgXrBWow0b3z-1">
          <mxGeometry y="350" width="380" height="150" as="geometry" />
        </mxCell>
        <mxCell id="rrqdZ66hdgXrBWow0b3z-11" value="" style="swimlane;swimlaneHead=0;swimlaneBody=0;fontStyle=0;connectable=0;fillColor=none;startSize=0;collapsible=0;recursiveResize=0;expand=0;fontStyle=1;fontSize=19;shadow=0;" vertex="1" parent="rrqdZ66hdgXrBWow0b3z-10">
          <mxGeometry x="40" width="340" height="150" as="geometry">
            <mxRectangle width="340" height="150" as="alternateBounds" />
          </mxGeometry>
        </mxCell>
        <mxCell id="vhoSmDUoAUvr8L5RxzBO-8" value="&lt;ul style=&quot;font-size: 22px;&quot;&gt;&lt;li&gt;&lt;font style=&quot;font-size: 22px;&quot;&gt;GETPROCESS&lt;b&gt;[&lt;/b&gt;null &lt;b&gt;|&lt;/b&gt; Id&lt;b&gt;]&lt;/b&gt;&lt;/font&gt;&lt;/li&gt;&lt;li&gt;&lt;font style=&quot;font-size: 22px;&quot;&gt;POSTPROCESS(Id)&lt;/font&gt;&lt;/li&gt;&lt;li&gt;&lt;font style=&quot;font-size: 22px;&quot;&gt;PUTPROCESS(Id)&lt;/font&gt;&lt;/li&gt;&lt;li&gt;&lt;font style=&quot;font-size: 22px;&quot;&gt;DELETEPROCESS(Id)&lt;/font&gt;&lt;/li&gt;&lt;/ul&gt;" style="text;strokeColor=none;fillColor=none;html=1;whiteSpace=wrap;verticalAlign=middle;overflow=hidden;fontSize=19;shadow=0;" vertex="1" parent="rrqdZ66hdgXrBWow0b3z-11">
          <mxGeometry y="-3" width="340" height="153" as="geometry" />
        </mxCell>
        <mxCell id="rrqdZ66hdgXrBWow0b3z-17" value="MAILDETAILS" style="shape=tableRow;horizontal=0;startSize=40;swimlaneHead=0;swimlaneBody=0;top=0;left=0;bottom=0;right=0;dropTarget=0;fillColor=none;collapsible=0;recursiveResize=0;expand=0;fontStyle=1;fontSize=19;shadow=0;" vertex="1" parent="rrqdZ66hdgXrBWow0b3z-1">
          <mxGeometry y="500" width="380" height="150" as="geometry" />
        </mxCell>
        <mxCell id="rrqdZ66hdgXrBWow0b3z-18" style="swimlane;swimlaneHead=0;swimlaneBody=0;fontStyle=0;connectable=0;fillColor=none;startSize=0;collapsible=0;recursiveResize=0;expand=0;fontStyle=1;fontSize=19;shadow=0;" vertex="1" parent="rrqdZ66hdgXrBWow0b3z-17">
          <mxGeometry x="40" width="340" height="150" as="geometry">
            <mxRectangle width="340" height="150" as="alternateBounds" />
          </mxGeometry>
        </mxCell>
        <mxCell id="vhoSmDUoAUvr8L5RxzBO-9" value="&lt;ul style=&quot;font-size: 22px;&quot;&gt;&lt;li&gt;&lt;font style=&quot;font-size: 22px;&quot;&gt;GETMAILDETAILS&lt;b&gt;[&lt;/b&gt;null &lt;b&gt;|&lt;/b&gt; Id&lt;b&gt;]&lt;/b&gt;&lt;/font&gt;&lt;/li&gt;&lt;li&gt;&lt;font style=&quot;font-size: 22px;&quot;&gt;POSTMAILDETAILS(Id)&lt;/font&gt;&lt;/li&gt;&lt;li&gt;&lt;font style=&quot;font-size: 22px;&quot;&gt;PUTMAILDETAILS(Id)&lt;/font&gt;&lt;/li&gt;&lt;li&gt;&lt;font style=&quot;font-size: 22px;&quot;&gt;DELETEMAILDETAILS(Id)&lt;/font&gt;&lt;/li&gt;&lt;/ul&gt;" style="text;strokeColor=none;fillColor=none;html=1;whiteSpace=wrap;verticalAlign=middle;overflow=hidden;fontSize=19;shadow=0;" vertex="1" parent="rrqdZ66hdgXrBWow0b3z-18">
          <mxGeometry y="-3" width="340" height="153" as="geometry" />
        </mxCell>
        <mxCell id="rrqdZ66hdgXrBWow0b3z-27" value="GROUPS" style="shape=tableRow;horizontal=0;startSize=40;swimlaneHead=0;swimlaneBody=0;top=0;left=0;bottom=0;right=0;dropTarget=0;fillColor=none;collapsible=0;recursiveResize=0;expand=0;fontStyle=1;fontSize=19;shadow=0;" vertex="1" parent="rrqdZ66hdgXrBWow0b3z-1">
          <mxGeometry y="650" width="380" height="160" as="geometry" />
        </mxCell>
        <mxCell id="rrqdZ66hdgXrBWow0b3z-28" style="swimlane;swimlaneHead=0;swimlaneBody=0;fontStyle=0;connectable=0;fillColor=none;startSize=0;collapsible=0;recursiveResize=0;expand=0;fontStyle=1;fontSize=19;shadow=0;" vertex="1" parent="rrqdZ66hdgXrBWow0b3z-27">
          <mxGeometry x="40" width="340" height="160" as="geometry">
            <mxRectangle width="340" height="160" as="alternateBounds" />
          </mxGeometry>
        </mxCell>
        <mxCell id="vhoSmDUoAUvr8L5RxzBO-10" value="&lt;ul style=&quot;font-size: 22px;&quot;&gt;&lt;li&gt;&lt;font style=&quot;font-size: 22px;&quot;&gt;GETGROUP&lt;b&gt;[&lt;/b&gt;null &lt;b&gt;|&lt;/b&gt; Id&lt;b&gt;]&lt;/b&gt;&lt;/font&gt;&lt;/li&gt;&lt;li&gt;&lt;font style=&quot;font-size: 22px;&quot;&gt;POSTGROUP(Id)&lt;/font&gt;&lt;/li&gt;&lt;li&gt;&lt;font style=&quot;font-size: 22px;&quot;&gt;PUTGROUP(Id)&lt;/font&gt;&lt;/li&gt;&lt;li&gt;&lt;font style=&quot;font-size: 22px;&quot;&gt;DELETEGROUP(Id)&lt;/font&gt;&lt;/li&gt;&lt;/ul&gt;" style="text;strokeColor=none;fillColor=none;html=1;whiteSpace=wrap;verticalAlign=middle;overflow=hidden;fontSize=19;shadow=0;" vertex="1" parent="rrqdZ66hdgXrBWow0b3z-28">
          <mxGeometry y="-3" width="340" height="163" as="geometry" />
        </mxCell>
        <mxCell id="rrqdZ66hdgXrBWow0b3z-29" value="USERMAILING" style="shape=tableRow;horizontal=0;startSize=40;swimlaneHead=0;swimlaneBody=0;top=0;left=0;bottom=0;right=0;dropTarget=0;fillColor=none;collapsible=0;recursiveResize=0;expand=0;fontStyle=1;fontSize=19;shadow=0;" vertex="1" parent="rrqdZ66hdgXrBWow0b3z-1">
          <mxGeometry y="810" width="380" height="187" as="geometry" />
        </mxCell>
        <mxCell id="rrqdZ66hdgXrBWow0b3z-30" style="swimlane;swimlaneHead=0;swimlaneBody=0;fontStyle=0;connectable=0;fillColor=none;startSize=0;collapsible=0;recursiveResize=0;expand=0;fontStyle=1;fontSize=19;shadow=0;" vertex="1" parent="rrqdZ66hdgXrBWow0b3z-29">
          <mxGeometry x="40" width="340" height="187" as="geometry">
            <mxRectangle width="340" height="187" as="alternateBounds" />
          </mxGeometry>
        </mxCell>
        <mxCell id="vhoSmDUoAUvr8L5RxzBO-11" value="&lt;ul style=&quot;font-size: 22px;&quot;&gt;&lt;li&gt;&lt;font style=&quot;font-size: 22px;&quot;&gt;GETUSERMAILING&lt;b&gt;[&lt;/b&gt;null &lt;b&gt;|&lt;/b&gt; Id&lt;b&gt;]&lt;/b&gt;&lt;/font&gt;&lt;/li&gt;&lt;li&gt;&lt;font style=&quot;font-size: 22px;&quot;&gt;POSTUSERMAILING(Id)&lt;/font&gt;&lt;/li&gt;&lt;li&gt;&lt;font style=&quot;font-size: 22px;&quot;&gt;PUTUSERMAILING(Id)&lt;/font&gt;&lt;/li&gt;&lt;li&gt;&lt;font style=&quot;font-size: 22px;&quot;&gt;DELETEUSERMAILING(Id)&lt;/font&gt;&lt;/li&gt;&lt;/ul&gt;" style="text;strokeColor=none;fillColor=none;html=1;whiteSpace=wrap;verticalAlign=middle;overflow=hidden;fontSize=19;shadow=0;" vertex="1" parent="rrqdZ66hdgXrBWow0b3z-30">
          <mxGeometry width="340" height="190" as="geometry" />
        </mxCell>
        <mxCell id="RflF9phPCHd4WMkSOHgh-1" style="edgeStyle=orthogonalEdgeStyle;rounded=0;orthogonalLoop=1;jettySize=auto;html=1;entryX=0.5;entryY=0;entryDx=0;entryDy=0;shadow=0;fontSize=22;" edge="1" parent="1" source="0h9gTOIGsW0tNShwWLxz-417" target="0h9gTOIGsW0tNShwWLxz-3">
          <mxGeometry relative="1" as="geometry" />
        </mxCell>
        <mxCell id="RflF9phPCHd4WMkSOHgh-2" value="" style="group" vertex="1" connectable="0" parent="1">
          <mxGeometry x="-1526" y="1270" width="570" height="570" as="geometry" />
        </mxCell>
        <mxCell id="vhoSmDUoAUvr8L5RxzBO-13" value="" style="ellipse;whiteSpace=wrap;html=1;aspect=fixed;fontSize=22;shadow=0;" vertex="1" parent="RflF9phPCHd4WMkSOHgh-2">
          <mxGeometry width="570" height="570" as="geometry" />
        </mxCell>
        <mxCell id="vhoSmDUoAUvr8L5RxzBO-14" value="" style="ellipse;whiteSpace=wrap;html=1;aspect=fixed;fontSize=22;shadow=0;" vertex="1" parent="RflF9phPCHd4WMkSOHgh-2">
          <mxGeometry x="6" y="68" width="434" height="434" as="geometry" />
        </mxCell>
        <mxCell id="vhoSmDUoAUvr8L5RxzBO-16" value="CRUD Mailing" style="ellipse;whiteSpace=wrap;html=1;aspect=fixed;fontSize=22;shadow=0;" vertex="1" parent="RflF9phPCHd4WMkSOHgh-2">
          <mxGeometry x="110" y="80" width="200" height="200" as="geometry" />
        </mxCell>
        <mxCell id="vhoSmDUoAUvr8L5RxzBO-17" value="JWT" style="text;html=1;strokeColor=none;fillColor=none;align=center;verticalAlign=middle;whiteSpace=wrap;rounded=0;fontSize=25;shadow=0;" vertex="1" parent="RflF9phPCHd4WMkSOHgh-2">
          <mxGeometry x="340" y="250" width="60" height="30" as="geometry" />
        </mxCell>
        <mxCell id="vhoSmDUoAUvr8L5RxzBO-18" value="MailSender" style="ellipse;whiteSpace=wrap;html=1;aspect=fixed;fontSize=22;shadow=0;" vertex="1" parent="RflF9phPCHd4WMkSOHgh-2">
          <mxGeometry x="110" y="290" width="200" height="200" as="geometry" />
        </mxCell>
        <mxCell id="vhoSmDUoAUvr8L5RxzBO-20" value="Azure" style="text;html=1;strokeColor=none;fillColor=none;align=center;verticalAlign=middle;whiteSpace=wrap;rounded=0;fontSize=25;shadow=0;" vertex="1" parent="RflF9phPCHd4WMkSOHgh-2">
          <mxGeometry x="450" y="220" width="95" height="60" as="geometry" />
        </mxCell>
      </root>
    </mxGraphModel>
  </diagram>
  <diagram name="Base de datos" id="u6toLSjGgIMawWejA9_E">
    <mxGraphModel dx="2401" dy="2103" grid="1" gridSize="10" guides="1" tooltips="1" connect="1" arrows="1" fold="1" page="1" pageScale="1" pageWidth="827" pageHeight="1169" math="0" shadow="0">
      <root>
        <mxCell id="0" />
        <mxCell id="1" parent="0" />
        <mxCell id="kg-4zczay7WPdVNOa1s0-6" value="UserMailing" style="swimlane;childLayout=stackLayout;horizontal=1;startSize=30;horizontalStack=0;rounded=1;fontSize=14;fontStyle=0;strokeWidth=2;resizeParent=0;resizeLast=1;shadow=0;dashed=0;align=center;fontColor=#000000;" parent="1" vertex="1">
          <mxGeometry x="24" y="30" width="160" height="140" as="geometry" />
        </mxCell>
        <mxCell id="kg-4zczay7WPdVNOa1s0-7" value="+ Id&#xa;+ Email&#xa;+ GroupId&#xa;+ IsActive&#xa;+ Rut&#xa;+ Username&#xa;+ MailType" style="align=left;strokeColor=none;fillColor=none;spacingLeft=4;fontSize=12;verticalAlign=top;resizable=0;rotatable=0;part=1;fontColor=#000000;" parent="kg-4zczay7WPdVNOa1s0-6" vertex="1">
          <mxGeometry y="30" width="160" height="110" as="geometry" />
        </mxCell>
        <mxCell id="SKVofKb6DAUZ1m28BNPh-21" style="edgeStyle=orthogonalEdgeStyle;rounded=0;orthogonalLoop=1;jettySize=auto;html=1;entryX=0.5;entryY=1;entryDx=0;entryDy=0;endArrow=ERmany;endFill=0;" parent="1" source="kg-4zczay7WPdVNOa1s0-12" target="kg-4zczay7WPdVNOa1s0-27" edge="1">
          <mxGeometry relative="1" as="geometry" />
        </mxCell>
        <mxCell id="kg-4zczay7WPdVNOa1s0-12" value="Mails" style="swimlane;childLayout=stackLayout;horizontal=1;startSize=30;horizontalStack=0;rounded=1;fontSize=14;fontStyle=0;strokeWidth=2;resizeParent=0;resizeLast=1;shadow=0;dashed=0;align=center;fontColor=#000000;" parent="1" vertex="1">
          <mxGeometry x="564" y="285" width="160" height="140" as="geometry" />
        </mxCell>
        <mxCell id="kg-4zczay7WPdVNOa1s0-13" value="+ Id&#xa;+ ProcessId&#xa;+ Schedule Type" style="align=left;strokeColor=none;fillColor=none;spacingLeft=4;fontSize=12;verticalAlign=top;resizable=0;rotatable=0;part=1;fontColor=#000000;" parent="kg-4zczay7WPdVNOa1s0-12" vertex="1">
          <mxGeometry y="30" width="160" height="110" as="geometry" />
        </mxCell>
        <mxCell id="ZR7f08FQTK7-2yj1gq2D-1" style="edgeStyle=orthogonalEdgeStyle;rounded=0;orthogonalLoop=1;jettySize=auto;html=1;shadow=0;fontSize=14;" edge="1" parent="1" source="kg-4zczay7WPdVNOa1s0-18" target="YyMQZ12qbrtMW_TAwCsF-4">
          <mxGeometry relative="1" as="geometry">
            <Array as="points">
              <mxPoint x="418" y="250" />
              <mxPoint x="418" y="250" />
            </Array>
          </mxGeometry>
        </mxCell>
        <mxCell id="kg-4zczay7WPdVNOa1s0-18" value="Processes" style="swimlane;childLayout=stackLayout;horizontal=1;startSize=30;horizontalStack=0;rounded=1;fontSize=14;fontStyle=0;strokeWidth=2;resizeParent=0;resizeLast=1;shadow=0;dashed=0;align=center;fontColor=#000000;" parent="1" vertex="1">
          <mxGeometry x="338" y="285" width="160" height="140" as="geometry" />
        </mxCell>
        <mxCell id="kg-4zczay7WPdVNOa1s0-19" value="+ Id&#xa;+AuditDate&#xa;+AuditPc&#xa;+AuditUser&#xa;+ModuleId&#xa;+Name" style="align=left;strokeColor=none;fillColor=none;spacingLeft=4;fontSize=12;verticalAlign=top;resizable=0;rotatable=0;part=1;fontColor=#000000;" parent="kg-4zczay7WPdVNOa1s0-18" vertex="1">
          <mxGeometry y="30" width="160" height="110" as="geometry" />
        </mxCell>
        <mxCell id="SKVofKb6DAUZ1m28BNPh-12" style="edgeStyle=orthogonalEdgeStyle;rounded=0;orthogonalLoop=1;jettySize=auto;html=1;entryX=0;entryY=0.5;entryDx=0;entryDy=0;endArrow=ERmany;endFill=0;" parent="1" source="kg-4zczay7WPdVNOa1s0-20" target="kg-4zczay7WPdVNOa1s0-18" edge="1">
          <mxGeometry relative="1" as="geometry" />
        </mxCell>
        <mxCell id="kg-4zczay7WPdVNOa1s0-20" value="Modules" style="swimlane;childLayout=stackLayout;horizontal=1;startSize=30;horizontalStack=0;rounded=1;fontSize=14;fontStyle=0;strokeWidth=2;resizeParent=0;resizeLast=1;shadow=0;dashed=0;align=center;fontColor=#000000;" parent="1" vertex="1">
          <mxGeometry x="24" y="285" width="160" height="140" as="geometry" />
        </mxCell>
        <mxCell id="kg-4zczay7WPdVNOa1s0-21" value="+ Id&#xa;+ AplicationId&#xa;+ Name" style="align=left;strokeColor=none;fillColor=none;spacingLeft=4;fontSize=12;verticalAlign=top;resizable=0;rotatable=0;part=1;fontColor=#000000;" parent="kg-4zczay7WPdVNOa1s0-20" vertex="1">
          <mxGeometry y="30" width="160" height="110" as="geometry" />
        </mxCell>
        <mxCell id="SKVofKb6DAUZ1m28BNPh-2" style="edgeStyle=orthogonalEdgeStyle;rounded=0;orthogonalLoop=1;jettySize=auto;html=1;entryX=0.5;entryY=1;entryDx=0;entryDy=0;endArrow=ERmany;endFill=0;" parent="1" source="kg-4zczay7WPdVNOa1s0-22" target="kg-4zczay7WPdVNOa1s0-21" edge="1">
          <mxGeometry relative="1" as="geometry" />
        </mxCell>
        <mxCell id="kg-4zczay7WPdVNOa1s0-22" value="Aplications" style="swimlane;childLayout=stackLayout;horizontal=1;startSize=30;horizontalStack=0;rounded=1;fontSize=14;fontStyle=0;strokeWidth=2;resizeParent=0;resizeLast=1;shadow=0;dashed=0;align=center;fontColor=#000000;" parent="1" vertex="1">
          <mxGeometry x="24" y="465" width="160" height="120" as="geometry" />
        </mxCell>
        <mxCell id="kg-4zczay7WPdVNOa1s0-23" value="+ Id&#xa;+ Name" style="align=left;strokeColor=none;fillColor=none;spacingLeft=4;fontSize=12;verticalAlign=top;resizable=0;rotatable=0;part=1;fontColor=#000000;" parent="kg-4zczay7WPdVNOa1s0-22" vertex="1">
          <mxGeometry y="30" width="160" height="90" as="geometry" />
        </mxCell>
        <mxCell id="kg-4zczay7WPdVNOa1s0-26" value="MailDetails" style="swimlane;childLayout=stackLayout;horizontal=1;startSize=30;horizontalStack=0;rounded=1;fontSize=14;fontStyle=0;strokeWidth=2;resizeParent=0;resizeLast=1;shadow=0;dashed=0;align=center;fontColor=#000000;" parent="1" vertex="1">
          <mxGeometry x="564" y="30" width="160" height="140" as="geometry" />
        </mxCell>
        <mxCell id="kg-4zczay7WPdVNOa1s0-27" value="+ Id&#xa;+AuditDate&#xa;+AuditPc&#xa;+AuditUser&#xa;+GroupId&#xa;+MailId" style="align=left;strokeColor=none;fillColor=none;spacingLeft=4;fontSize=12;verticalAlign=top;resizable=0;rotatable=0;part=1;fontColor=#000000;" parent="kg-4zczay7WPdVNOa1s0-26" vertex="1">
          <mxGeometry y="30" width="160" height="110" as="geometry" />
        </mxCell>
        <mxCell id="YyMQZ12qbrtMW_TAwCsF-18" style="edgeStyle=orthogonalEdgeStyle;rounded=0;orthogonalLoop=1;jettySize=auto;html=1;shadow=0;fontSize=14;" edge="1" parent="1" source="kg-4zczay7WPdVNOa1s0-28">
          <mxGeometry relative="1" as="geometry">
            <mxPoint x="420" as="targetPoint" />
            <Array as="points">
              <mxPoint x="420" y="20" />
              <mxPoint x="420" y="20" />
            </Array>
          </mxGeometry>
        </mxCell>
        <mxCell id="kg-4zczay7WPdVNOa1s0-28" value="Groups" style="swimlane;childLayout=stackLayout;horizontal=1;startSize=30;horizontalStack=0;rounded=1;fontSize=14;fontStyle=0;strokeWidth=2;resizeParent=0;resizeLast=1;shadow=0;dashed=0;align=center;fontColor=#000000;" parent="1" vertex="1">
          <mxGeometry x="338" y="30" width="160" height="140" as="geometry" />
        </mxCell>
        <mxCell id="kg-4zczay7WPdVNOa1s0-29" value="+ Id&#xa;+AuditDate&#xa;+AuditPc&#xa;+AuditUser&#xa;+Name" style="align=left;strokeColor=none;fillColor=none;spacingLeft=4;fontSize=12;verticalAlign=top;resizable=0;rotatable=0;part=1;fontColor=#000000;" parent="kg-4zczay7WPdVNOa1s0-28" vertex="1">
          <mxGeometry y="30" width="160" height="110" as="geometry" />
        </mxCell>
        <mxCell id="SKVofKb6DAUZ1m28BNPh-15" value="uno" style="text;html=1;align=center;verticalAlign=middle;resizable=0;points=[];autosize=1;strokeColor=none;fillColor=none;" parent="1" vertex="1">
          <mxGeometry x="194" y="445" width="40" height="30" as="geometry" />
        </mxCell>
        <mxCell id="SKVofKb6DAUZ1m28BNPh-16" value="muchos" style="text;html=1;align=center;verticalAlign=middle;resizable=0;points=[];autosize=1;strokeColor=none;fillColor=none;" parent="1" vertex="1">
          <mxGeometry x="184" y="395" width="70" height="30" as="geometry" />
        </mxCell>
        <mxCell id="SKVofKb6DAUZ1m28BNPh-18" style="edgeStyle=orthogonalEdgeStyle;rounded=0;orthogonalLoop=1;jettySize=auto;html=1;exitX=0;exitY=0.5;exitDx=0;exitDy=0;entryX=1;entryY=0.5;entryDx=0;entryDy=0;endArrow=ERone;endFill=0;" parent="1" source="kg-4zczay7WPdVNOa1s0-13" target="kg-4zczay7WPdVNOa1s0-19" edge="1">
          <mxGeometry relative="1" as="geometry" />
        </mxCell>
        <mxCell id="SKVofKb6DAUZ1m28BNPh-22" style="edgeStyle=orthogonalEdgeStyle;rounded=0;orthogonalLoop=1;jettySize=auto;html=1;entryX=1;entryY=0.5;entryDx=0;entryDy=0;endArrow=ERmany;endFill=0;" parent="1" source="kg-4zczay7WPdVNOa1s0-29" target="kg-4zczay7WPdVNOa1s0-7" edge="1">
          <mxGeometry relative="1" as="geometry" />
        </mxCell>
        <mxCell id="SKVofKb6DAUZ1m28BNPh-23" style="edgeStyle=orthogonalEdgeStyle;rounded=0;orthogonalLoop=1;jettySize=auto;html=1;exitX=1;exitY=0.5;exitDx=0;exitDy=0;entryX=0;entryY=0.5;entryDx=0;entryDy=0;endArrow=baseDash;endFill=0;" parent="1" source="kg-4zczay7WPdVNOa1s0-29" target="kg-4zczay7WPdVNOa1s0-27" edge="1">
          <mxGeometry relative="1" as="geometry" />
        </mxCell>
        <mxCell id="b6Ak3XoM2CqJ0LOhJJDq-1" value="" style="shape=image;verticalLabelPosition=bottom;labelBackgroundColor=default;verticalAlign=top;aspect=fixed;imageAspect=0;image=data:image/png,iVBORw0KGgoAAAANSUhEUgAAA3YAAAJACAYAAADB+fSJAAAAAXNSR0IArs4c6QAAAARnQU1BAACxjwv8YQUAAAAJcEhZcwAAFxEAABcRAcom8z8AAHfnSURBVHhe7d1vkxvHfeBx/CGpN2RSIgCK90YsUqI4gNbOw6tzKk+csi0qjkLOinl4d7GdKtsSJadUXoB8BflzluirshUvF6pUJXl0skQqzyxyl7/rnpke9DRmdgFwMdO98/1UtQkMZoAl3cPFl41ZdQQAADTq5s2b8uabbzIYXo7Dw8NspkKbTCalf04MRtODsAMAoGE67J48eSJff/01g+HVGI/HhJ1Dh91XX31V+ufFYDQ13nrrLcIOAICmEXYMXwdht4ywY/g4CDsAADxA2DF8HYTdMsKO4eNYOezKPsPJYPgy2qrsz4LB8GU8f/48m6lYBWHH8HUQdssIO4aPg7BjnInRVmV/FgyGL4OwWw9hx/B1EHbLCDuGj2OtsCt7Agaj6aHnZluZN9Blfy4MRpNDRwpht57ysPtQXu/1pNvpSOfi2/LJ48XjH77ek15Xbe9clLc/eSxPCsc548PXpdfrysW3P5HH96zbT/Tj1mtYY/H4KY0P35C+ft0f/Sb5GvLbp/kajK0Mwm7ZC4fdb38sg/P9wnl38Yf/In/86kN588I56VnbO6/9Qr748rE67qPFYxd/KP/yx6/y8/6jNy/IuZ7e/6L88F/+KF/p8+qjN+XCuV72vFv8RyP1Oi+p38vFH/zzll5H/b5fOi/9b/1A/jn/Pf9WfjzUv+dvyQ/+Wf1+P0y/hm9t7WsIYxB2jOAHYce5yfBvEHbrOzHsCgFXtb1irBJ2Vjg+fOcVFY1d6Vx7X76yYrJ0ZMF27f2vjo80wi7YQdgtO7Ww04H25SLQ8nhzwq3wWHbe5wFXtX2bYaefW3393/75F/LlvYDCLovQb//8/8mXj0seD3wQdozgB2HHucnwbxB26zsu7C5dvChdFVp5jCWhdkkuXuyq7SuEnT3syEveFC6H3ddfP5R3XlHbVnjuD9/oJyuHJ4adPezIW/UYRmODsFvWZNi9bP4+MMGWBNzL+d8Hi+Db3tArhOf7nTTsth5IK4Tdir/fj958Kfu6CbvSJ2Awmh6EHecmw79B2K3v2BW7a9fkmnoj1732vgqhJ+mK2stvy9vXnbB7+I68ooIp/3iXibU1V+z0MKt2ebAlz632y5/7R/Kj6+bjoNnQK3yf3lraL/0ajlux+1De6FvHrLJSyKhtEHbLGl2xe+01eU2dY73sI5q//fFQzr/yI/nhtb46r6pX7JL9+t3F+arGa7/Iwkx9PcPz5xbnoDsuLqLKRJ27T2HFLlsZM4/lK2lm+7e+Jd/Svwf9eCHYsojLjut8++fy/768t+aK3Yclz/E4jzrzNSXb339j6ev8wvwe1J/JKF8JNUO/3hfqz9eKzS/c/5+aG4QdI/hB2HFuMvwbhN36jg+79+X9JKKuyfuPP5VbejXtutlWsapWFXNrhl263700vExwmcjLv66KFbs85tLXrQq7dNXvovzoN2usPDJqG4Tdsm1cY5dGVhZvS9v1cSbsfiG/uH5ORc1r8osvfiPvDFVgXDPbKsLugxuFyDPX5C2H3UX5gbvip59Hfa12uBVW7NyPYpp4y4JKB6V+7WSVLNvXxNxD+zH1daTx5a7CObFXGMth98vX9ddWvpJXWLEzX0v+dY4KX8si7NKY++Sv0seT+Pvkr5LHLtkh6MF4gbC7J9f1H+ilW/Iw3/ZQbl3Sf8jX5V5h301H9hpLr/O13Luebe9cklsP7WMqxr3ryf6Xbj0s3nYfc49jeD8Iu6qwU+eP/S/peqjz6NPSfRmM0x2E3fpOCrvHH6RBdu3tt+WSCq7r7z+WD5IfoOKEnbNq96JhlwTbvTTQCn+f6FEVds7q3klhp1/LPP9iFY/hyyDsljW7YvcL+eL9N5LIeO2HP5SX+325pgLt/Td0rJWH3S9fP18IObN6txR2F3+weN089rLzeMWwW/q4o34e/XXbK2RO9JkVPXNfv57Zlofdiit2/+fWoOQ59DHFsHv/jeWvMwm57GvL75tVOevxf35bv8alJPjceGxyhBN2hYCr2n7MIOzO7CDsSsJOzenkL+Lr96xvCur8vF78BxIGY1uDsFvfiWH35F5yO73e7rq8ryLsnhN25idlHhtzK4Wducbumrz/1eM08pIQM8cshnuNnblfjDn79nLYJc+Vre4l39sv/kh+Y0Umo9lB2C1rPOz0xxPV7fR6u2vyiy++lHvJKtzphN2HWbhd/EG22meFm/5athV2ye/TrPjpvwuSmPtAbqz1UUz1PO5zZB+XfKGw06850q/5bfn2t/vSf3nxvIv/j5odQYTdpUuXiuGVhNgltV2/1ophZw9C7kwNwq7k3NQrdazOMRochN36Tg67J4v/xEHhvgm74g88+dT+KOWaYZfHmdknX4FLQy95I/PhO/LOwyfp66jnS8Mu/RqSj1WaryEJuBXCLvv9Jh/5JOy8GoTdsubDTl8zpiND/X1QuF8ednoVS4dc+lHMhyqKVCipc7w87D6Rv1KPn1Pnsf5Y5id/peNLHWvFVxpk3dKwM1Fl7pt4SwJq6eOPJWFnfq95zG0Qdu5zZAFW+Lhl9rXoY/THKSs/illyvO4Ic9zia25+bDns7JU1Na7fS/d7eEsu2dvNc7jbzbh+PX2e7PiHt1ToqWNuJR/HdMKu6rntmHPDruSxjorJ/HkKv8fs9c1j2bh+Tz9W8ftlbHUQds65qeawXq27dOvT4nZ76PNEvznM56s6Z83cz4Y+Pv+Gop9T7W+2Pbz1cvIa1z9Qf6GZx9R5ap8zn+Zv1nRoWh/huv7B4nkZZ3YQdutbJezMdXPX3ldxpc6xYtip/bPH9bl20f5JmquEnTlHk+F8vFMP94enqH10vD0xMaa3qa/zqw/SaCt8DSeEnQnJ/Hm51s6rQdgt28Y1dmmgpStxq4SdCTcTZ8eFnY6dPAStc7Pyo5j6WB1g1r522KVfi4om6+svPJ7FnXlsaSWtIuzMilp6nLlOzo68k8MuvcbOfQ59TPZ16+fSj9kriNbXufTDU6ywy7flP0TFPK8fY6thl14H566oZce5kafv51Fmjlnsmz6Xft7sNfJtx6zYZW9Ul2LOvl2xn/l9mYhLw83ZV9031/rpx0/8ehhbGYRd8dzUczaJrnvpX0zmfjKv9fz8VO2Xh112X83rZB91Xum/uArhpp9XP35C2JmYM4+Zfe/pn9qXvE72XIxWDMJufeVhx2A0Pwi7ZS8cdg0PHVSFj2KW7MMoG9nHMS9ZsefR2GrY2StbbkQtDTvs8ue0IjA77vqtdJ9jQyoPxHQsxZx92/qa7MeS11SPmd+D2dcOOftxfb/098vY+iDsysPOXbHTgbUUdjrG8sf0PM7eVKrHX9aPm9U1dV6cuGKXPeYea/ZNz4tsH8aZH4Td+gg7hq+DsFu2HHYfyY1kJSf9flc99E+y/EoeW3++9Y9s5a90VZBx7MhW7Hz7aZhmbCfs7G0mlLJ97zmhVBjHhV12O73ernpF0ISXHWnH3tbHlTy2SdjZz5WMwp8NY1uDsHPOTSfazPamwi55vmwfc14sPqbJOKuDsFsfYcfwdRB2y8JbsctizrxHJerWHvnHRM0PVynZp+nxAmFXHTV5MOXDikATb1mcpcfdSuPMPJYHkR12i6gq3rfDzqwYptsKUWZ/be7XWfJYVdgV75vXs/4MklEWvYxtDcKu/Nx0V+2OCzs9783+S+FmHrdiTT+XG3Ym2JaOzYc6L/S1dtl+xccYZ20Qdusj7Bi+DsJuWegfxWSczfFCYadHHlvZyGNp6TErwPK4cx47IexMdJmIWg67xT56FH6aZrZ96bZ1jP1YVdjpYf++zGvor6ny98vY6iDsys9NPZd1YC3mpBom5NywK9m/+LHJh3Lr5XRVL3nMzHs77LLHkmGt1pkITB/TYckb1zYMwm59Jux++tOfEniMRoZmftV+9rOfJXORsFtmwk7/Gf3kJz+Rx4/9XMFhnN1h+/u///tkPr5w2LV9mPArrtgx6hyEXcPnZhZ2xRBktH0Qdutzw+5F6P8PgE3Yc4ewq+aG3dHRUfbI+jhfsS53zhB2pzL4yKUPg7Aj7Bj+DcJufYQdfGDPHcKuGmGHJrlzhrDbeGQxZwZR1/gg7Ag7hn+DsFsfYQcf2HOHsKtG2KFJ7pzZOOz05NX0bQajzuHSc1FvJ+wW56b958Vg1DFcJkoIu/URdvCBPXcIu2qEHZrkzpkXCrsXmYBMXmzKnTuEXXnYbYpzE5uy5w5htznCDj6w5w5hV42wQ5PcOUPYITju3CHsCDv4wZ47hN3mjgs7/We8yjDs26XuT2QyO5Ij+/+ism1oHXvuEHbVjgs7+5w8bhj27VKf35Wr58fy62+eyeJVHsjOhSsS3RjI8M4f5Onhi5+4n9+9Kq/Gaz7Xgx3ZmT2TZ3bXlm3DqXLnDGGH4Lhzh7Aj7OAHe+4QdptbN+x+9atfyXe/+135zne+kwz7GP34sQg7VLDnDmFXbd2w+4d/+Af5sz/7s/x81cca+vFjqbDbeXUk0a+fLmJJxdPVK5Hc/sMzebGmU4G4M5Nnm1YYYdcId84QdgiOO3cIO8IOfrDnDmG3uXXD7i//sqf+jDvyX/+lv4135M///H/kf+b68WPlETeX3VEv+QFI+vWjKWHXdvbcIeyqrRt2P/jBBfVnuDhf/+Iv/nv+Z6ofP5YOu/diiUax7D89lOfyudy9+pbEtyOJ40jGUx1RetsFOafO5Rs3bki0l4WVDsBJJIN+JL/+7I5cuXBOevqH/73yrnz29JG8p4/pZfd/PZa3kiDLnktv79yQj/+UrRTmz9VXz5FtzyNucUzh9bEV7pwh7BAcd+4QdoQd/GDPHcJuc5uG3e9/v3nYHcQjGWerdPcnffUG8ZCwazl77hB21TYNu88+6yTn7fph90j2xq/K7v5TOZyn9/fjt+S9LOz2d6/KW9N0Re/BzgWZ7H2Th92FK3dUxOkgXNAfu0z3t1bsskjTz5V/JFPH3O5+fvul7Lnm5vjZ4pjF67+kXv9PhN0WuXPG37CbRRLNsttG2Ta0jjt3CLuaw45zExXsuUPYbW7dsLt796784z925T//syMvv/wtefz4cbb3CudzFnbT8Ujig6P0DR8fxYRizx3Crtq6Yfe3f/u36nzty3/8R0cuX/6WfPnll9neK5yvWdg9e/TeIugePZNH7+3kYbc3uZpGnz5/81W09HYeZvpjly+dl372n+y68bGOr+WwKzyXvr7vrak8zR63Iy95jSzsKl8fW+HOmVMLO317lWHYt0vx5hEV3LlD2B0fdvr2KsOwb5fi3EQFe+4QdptrIuxYsYPLnjuEXbVGwu5wLnd3XpXR8Lb8IVk1W4TdcSt2JsY+1/urINTxtemKXVXYsWJXL3fObDXsPvroo/ziUD30NsO+XSp/oziXeJD+i0IU8eYRy3OHsFs/7E7t3Bx2OTeRs+cOYbe5dcNOj16vJ//+75uH3dHz+zLp96Srzmf9+lxjB3vuEHbV1g07PS5cuCD/9m8vEnZWUKmXS0Itv8ZOBdqFdDVu6Ro7K8ZeOt9Pvn8vVuyya+MGFdfYJdfiZR/jPCbsktfPVgO5xm773Dmz1bD7/vfTz/ubC0S/973vJftq+vFjZW8e5/Egf8M4i9QbSN48tp47dwi79cPu+9/vqkde9Nwcql/Td36zqJvfRnvZc4ew29ymYffLX3bU+f+/C8fox4BN2HOHsKu2adj9/Of6fP2f6/1DzJoKK3Y4k9w5U0vYmQu6N3nzOIsGEs+L29Bu7twh7DYPuxc7N4fq3MzesHNuQrHnDmG3uU3D7m/+Rp/Tv0vuG/ZtYB323CHsqm0adn/91x353e/+b+Ec14+9sAc7csGsxt34WL6h6s40d85sNezee+89+ad/6iSf+7948WKyzbBvl8pXBVixQ5E7dwi79cPudM5NVuxQZM8dwm5zm4SdHvq/Z6f317cN+zawDnvuEHbVNgk7PfR/z06v1unbhn0bWIU7Z7wPO3VDouwzwFzHA82dO4RdM2GXnJtdrrHDgj13CLvNHRd26zrxfAYq2HOHsKt2XNiti/MV63LnzFbDTg/9pm+jN49ABXfuEHbrh50eXRVl+qdycW7itNhzh7DbHGEHH9hzh7CrRtihSe6cqSXsPvhAXyC6vD+wCXfuEHabhx3nJk6TPXcIu80RdvCBPXcIu2qEHZrkzplawu72bf1f2P8suW/Yt4F1uHOHsNs87NJz8/fJfcO+DazDnjuE3eYIO/jAnjuEXTXCDk1y58zWw06Pjz76KL9t2LeBdbhzh7DbLOz04NzEabLnDmG3OTfszDnKYNQ1NPOrRthVc8PO/EAUBqOuYTu1sFvXixyLdnPnDmF3fNiti3MTm7LnDmG3OVbs4AN77hB21VixQ5PcOUPYITju3CHsCDv4wZ47hN3mCDv4wJ47hF01wg5NcucMYYfguHOHsCPs4Ad77hB2myPs4AN77hB21Qg7NMmdMy8cdgxGE8NG2JWHHYNR59DMrxphtznCDj6w5w5hV42wQ5PcOcOKHYLjzh3CjhU7+MGeO4Td5gg7+MCeO4RdNcIOTXLnDGGH4Lhzh7Aj7OAHe+4QdptrIuzmuyMZxY/kaNX/q+5PZDI7koO45Dj1WL/XTf5zR3rc3Dtc/XnhDXvuEHbVag27z+/K1fPnpJucWzfk42+eyVqv9mBHdmbP5NnaX+LncvfqWzJ9ar/eA9m5uiv7Tw9l1dP787tX5dX4D/L0kL8QTos7Zwg7BMedO4QdYQc/2HOHsNtc/WF3XyajoQy6kUwPj1Z7k5aF3SLY1HNMZupNrdqgHhvFB9ljc9kd9SWaVsWddRy8Ys8dwq5a3WG3894jeabDSEXa1d399SJp7bBT8bYzk2f6APf1Nnl9nDp3zhB2CI47dwg7wg5+sOcOYbe52sMuC7FH8UjGOtZmVrQVAk5HWk963U7yNUZTs++BxMN0e+fybdmfRlbY6cN2ZbKb3Ve3R/1euuJw+abcHHSla47LDrg/6afP1bkpe6uGJk6dPXcIu2qNhV22eje4cUMG/Uh+/c2+7F49L+eSc8dezdOrbReS7TfUvtGeCruZFXhO7D3YeUnO99VzvHJDbgz60u/p2+/KZ0+n8pa1QvdgZ0dmz9LXyI/Rr/txJFcmUfo1/Uk9rr/OC+ekp875/PWPsq9JP7c+Ru+Xvrj8t+RY9XeAvR2V3DlD2CE47twh7Ag7+MGeO4Td5uoOu/uTkcQHKqB0dI1ncjQdl4ad/rhmEn7qto6vsV6FyyOwasVOMc+bb0ilz7cnkf2YOvaKOjZZBLBvo3b23CHsqjW6YndlKN3BbflXFVtz+2OO1mqa/vjjW9OnSbg92Lkgk70/VYeddVzKWrHT93auyu7+Uzmcq1h7aypP0yddHJN9TT31NX2WBeDnd3fkvUfP0vM4e6393fKvVd9+6dU78tk3+vfz39TX/U0enCjnzhmPw24mUfb5fD0G8Tzbvrp5PEiPm0USzbKNCJ47dwi7ZsJuHg+T80v/Xb2S2Vi9iXueHDdUb9aWjlOPJ/9yn53z0fQ5/1IfGHvuEHabqzfsVJCZFbRk3JS9vSgPODvs8gBMDsu2rxJ2hfvF17u5Vww7HXv29XmXb+8Tdg2x5w5hV62xa+wuvyv/+uuxvJpFUR5d+nzR+2XhVdiehVVV2BX2TRTDTu+rI+wP8at5LOpwvHCul5+zr7zyigxu29fRZatzg3flM/X1vqVea29S/rXq5/9v6vm/0Q9YXxequXPG77A7rRoj7M4Ud+4Qdk2EnTo/hwMZdCJRrbaaLOwWu8/Um4SZetNv7o5V8JlQnEs87KrztirunGPhBXvuEHabqzXsnAhLVtGiSAbZtnxlTt3ebMVOh9xQ4v00COe7E9nN4rBqxc6EJJplzx3CrlpjK3ZaFlo6ogo/mMTZXrZiZx7XH6NMtmWRVvzhJk7YJT8wZSLRIJI984NU3ACzXrtAf+2vjiT69dNjV+wIu/W4cyassJvHEsVq6H8VGMQyV8GW/guBenOpHhtk/1qQPKb3N0FH2J0p7twh7BoIO3VO6QjTq+I6vgrnWHY7/Ss9DTR9XkbqzWISakngqe2D7F/l1fl6oHcuhJ2izumxvq9+HXbNvnfUvulzJv9imdzXh2b31d8FUyKiMfbcIew2V2fYFVbhtORjk+pcVeecPqf015JcS5fssFhty7fnYZddfzdIr7FbrLpdlttZ1CVUuBV/Yua+3Bn10+OSF1HPc8VcY6cf5ydqNsWeO4RdNV/CTj0od801dpf1NXHpRyHVTrJz4bz01fm0uMZNbXvJ3ab3ta59S66reyTvmdW2/Nq6l+R89LH8KS8u+3q59PmGdxZht1jRe0XeffemjKf6tdzXyb5Wwm5t7pwJ5qOYyZvGJN5UxCU3B9LJ3kmmby6Tm4n8PmF3Jrlzh7CrP+xm0VDiufqLV0eXOrmeV4Sd/tilWXXT8bUIO73tuBU7xTx3vsF+PutY+zj3OVAre+4QdpurM+yAKvbcIeyq1Rp2gMOdMwGu2GXX2i29kSwJQbOPvS+C584dwq7usFPnmllBS0Yk06l7PqZhNxtnAZhsz4Ju1bDL76v9rNdLr71bHKtjz742b3Cn5Po91MKeO4Td5gg7+MCeO4RdNcIOTXLnzJkJu8EgUm8g07us2J1t7twh7GoOO3U+2QGWrKIl1+Sk22bR4tq4zVfsdMwNJD7QP2xlnMdh1Ypd8do9NMWeO4Td5gg7+MCeO4RdNcIOTXLnTDAfxUw+dnncip16Y5nvqwZhd3a5c4ewqzfs8o9hGslHJtU5Zs695Fo6c43dYrWteI2dDrHs+jvrGrvFyttA7iQb3e1mxS67zs695i5/HE2w5w5htznCDj6w5w5hV42wQ5PcOeNx2AHl3LlD2NW8YgdUsOcOYbc5wg4+sOcOYVeNsEOT3DlD2CE47twh7Ag7+MGeO4Td5gg7+MCeO4RdNcIOTXLnDGGH4Lhzh7Aj7OAHe+4Qdpsj7OADe+4QdtVOM+yAF0XYITju3CHsCDv4wZ47hN3m3LDTf64MRp1DM79qhF01N+weP3689OfJYGxruAg7BMedO4QdYQc/2HOHsNscK3bwgT13CLtqrNjBJ4QdguPOHcKOsIMf7LmzTtj1er38p57ypoiwgx/suUPYVSPs4BPCDsFx5w5hR9jBD/bcWTXsdNQdHelvP+no9Yg7wg4+sOcOYVeNsINPXjjsGIwmho2wKw87BqPOoZlftVXCzo26sxx29qqkuzrpPnbjxg3CDo2z5w5hV42wg09YsUNw3LlD2LFiBz/Yc8cNu/KwcYMu/fXv/u7vknl8Vob5/btv+MyfSdl2/QMYCDs0yZ47hF01wg4+IewQHHfumLlI2HFuoln23CkLO3d1zh522J21nypXFnVGVfDVHXbz3ZGM4kdytOrPubk/kcnsSA7ikuPmuzLq96SbBPxN2Ts8kvTh+zLJt3fk8u391V8PtbPnDmFXjbCDTwg7BMedO2c57OzVDT2qPtJG2MEH9txxw07TwWLmsok4N/b0Nv1RRDOnz8IoW7Gz/yzSP4/0MbO93rBTwTUayqAbyTSPsBNkYbcIM/Uck5n6fagNKuwmuwfpY2q/Uaxvz1TUDSXeX/H50Th77hB21Qg7+ISwQ3DcueOGnf1mSQ+jarvP0q9zMbrd8rgzbyA5N9Eke+6UhZ3NhE7662KOp7F3Nt8Y2THn/h7NY3q7/jPTf3a1hV0WX4/ikYx1rM2saCsE3Fx2Rz3pqb+H9NcYTc2+BxIP0+2dy7dl/1EsYxN2evVurIJvOs4CTz8PQmDPHcKuGmEHnxB2CI47d+ywKws280bKZbbp430c6de3PHTcmd+TGYQdfGDPnZPCznZc8LRR3WF3fzKS+OBInlsRVhZ2+uOaSfip2/cnfRlPD60IPH7FLo9GvQ1BsOcOYVfNDTsGo+nhb9jNYxlYb16jWbb9tMyi8ues2g4vuHPHzMXjwq6Kfkwf6+NIv+7F/H/+PL1fNnTs1R1283gog3i++seqZmP1xu55ctxQvdFbOk6d78M8WiOZJjEwk3G3m/8ZDO6UHAdv2HNnnbBDUb1hV7zuLbkmbi9aRJgVdnkAJodl2yvCLr/GTq/gqW1rX8OHxtlzh7CrZsJO/3kxGL4MD8NuJpF6c7fVviLsguTOnVXCrmq7po/zcaRf3/JIP465+NVs08fUc25q6vwcDmSgz9FV36hlYbfYXUXbeKZ+D9ldFXZjE4pq32EcS9QdqDeSvBMMhT13CLvN1Rp22YqaCa5kVS6KZJBty1fm1O2NVuxyOiC5xi4k9twh7KrpsHO/fzMYPgz9DvFEekd9sm/7zeM8HlRG10B/00miby7xwPwrYxaBdpS5t9UbxXQFUL1ZnGfb8tdYPFeknp+w85c7d+yw09L5sBhl28zwXfo1LkYac8/Vr938V72POYnrODcT6twZqpMoPU/V27SS8y5986bOq2H6NabnlQq7JPD0+ZatxA1iSdrNDrtk9a7LCl1g7LlD2G2uzrArrMJpyccx1bmqzj+94qa/luRaumSHxepevj0Pu+z6u4FzjZ3NXslTg5+K6Td77hB2QHhWepdbX9hFaXwpsyj9JqA/9qXfNOo3gvoh/aYy2ZbulD/uvsE0t81xyW39gPW4HZL69fLj4B137rhhd5Yk4WONqjfIdYfdLBqq81N9LTrA1MnyvOS801+p/thlEnN687ib3s5X7o5fsdMRG03tFT74zp47hN3m6gw7oIo9dwg7IDyehZ2zYqfeLJpwMzE3i7KVN029KRzoA0reYC7d1h8jc/YtPFdhX/jGnTtnOexWVW/YqfPHuu4tuR5uunyupTGXBWCyPQu6Y8Iuv8ZuEMs0+YcbVuxCYs8dwm5zhB18YM8dwg4Ij1dhl4SafY2derPohl3Vit0i/KyVN7U9WaXLbpt9zSZW7MLhzh3CruawU+eN/hjmoseGyccs9Tmlt82ibGXOPJbdXmvFLqF/cArX2IXEnjuE3eYIO/jAnjuEHRAev8JO0zFmrQokrWWiLGFdY2c+Zqn2irJjCtfK6YhT993nWgRcxXHwjjt3CLt6wy7/GKahV9r0OeOcP+keOs7KrrHTYZddf1d2jZ2RrOItVge55s5v9twh7DZH2MEH9twh7IDw+Bd2p6kQcQiZO3cIu5pX7IAK9twh7DZH2MEH9twh7IDwEHYIgjt3CDvCDn6w5w5htznCDj6w5w5hB4TnbIcdzgx37hB2hB38YM8dwm5zbtjpP1cGo86hmV81wg4ID2GHILhzh7Aj7OAHe+4QdptjxQ4+sOcOYQeEh7BDENy5Q9gRdvCDPXcIu80RdvCBPXcIOyA8hB2C4M4dwo6wgx/suUPYbY6wgw/suUPYAeEh7BAEd+4QdoQd/GDPHcJuc4QdfGDPHcIOCM9GYcdgNDFshF152DEYdQ7N/KoRdpsj7OADe+4QdkB4WLFDENy5Q9ixYgc/2HOHsNscYQcf2HOHsAPCQ9ghCO7cIewIO/jBnjuE3eaaCLv57khG8SM5WvX/qvsTmcyO5CAuOU49NooP8m36ucdq35WfG16w5w5hB4SHsEMQ3LlD2BF28IM9dwi7zdUfdvdlMhrKoBvJ9PBIVvp/Kwu7Rayp55jM5EhvIOzOBHvuEHZAeAg7BMGdO4QdYQc/2HOHsNtc7WGXhdijOAuwmRVthYCby+6oJ71uJ/kao6nZ90DiYbq9c/m27E+j6rCb78qo35NuRz3H3qFMx/30uM5N2dNRqV7vyjhKIjO5nz4FGmDPHcIOCA9hhyC4c4ewI+zgB3vuEHabqzvs7k9GEh+oiNLRNZ7J0XRcGnZ2oN2f9GU8PbQicLUVu/nuRHb1a+kH7P3M7dlY+qM7sn+YHYzG2HOHsAPC41fYzSKJZtntEvN4IIN4nt073jr7wn/u3CHsmgm7eTxMzquV336pN2zj2fPkuKF6A7d0nHp8aD2f3i9S+/P2Lhz23CHsNldv2Kkgy1bQOsm4KXt70WKFzQq7PACTw7Lta4aduie7o770Brdl785Qer1u9roduXx7Pwm7K+pYuq559twh7IDwBBR2M4kGKtY6kbpVRe1zXBkiWO7cIeyaCDt1fg2zc3DVN2BZ2C12n6k3CTP1pt/cJexCZ88dwm5ztYZdWYRFkQyybfnKnLq98oqdXvkbxfIoeVIdcioIHzkfq1T76Ov6oj0TfBn19RB2frDnDmEHhMfPsJvH6s1j+q95eaepx/RKgV6JM9tmUfavjYNYfRuZSzyw7ifPpbeZENRhqPezjjs2EuETd+4Qdg2EnTqndISl56B6B2b/Q0x2O31fps67Yfov8pF6s5iEWhJ4+nzM/qVenYsHeueqsFN/Bwy72XNM09CbjbvZCkMk06n6+0C/EU0i0xyNJthzh7DbXJ1hV1iF05KPY6pzVZ1zyXVw6mtJrqVLdlis7uXb87DLrr8b3JZ9tbOOwH62GpesxGUvsNh+WW7vP5JYr94l19il19zp5yPs/GDPHcIOCI+XYTePI1Hv9Qpm0SDdpqNP76T2Xf6opbVilz9XFoJmf/u40ueAj9y5Q9jVH3azaKjOQfXOS0eXOqmeZ+dY9mByW78vs1fddIwtwk5vW23Fbh6P09cy7P307cFgEYdolD13CLvN1Rl2QBV77hB2QHg8/ShmtvqWrbCpByRK/qXeDLWfCb2C5bDTb0IjtaOJRR16i+fpEHaBcOcOYVd32KlzK1tBM+egXjUrC7vZOAvAZHsWdGuGnUq7ZNWvO7iTxJve3s3+hT85b/XHsuOSa/ZQO3vuEHabI+zgA3vuEHZAePy+xi6LMr3dDrDkB6Mkb+zcKCsJO/0GUX8cLMoi0X0NBMGdO4RdzWGnzpulAEuuyUm3zaJsZc48lt0+ccVOr/4NzcqbjjkVhfYynHp8rF9DvX7hWj0nCNEce+4Qdpsj7OADe+4QdkB4PP0opllVS1fl8o9hGurN3kCFWuGauvSBxUqfFXBJCOZPkO2T/cs/kRcGd+4QdvWGXf4xTEMHmf4HE3MeJdfSmWvsVLyZ6+OS7XbYpStx9scok9W47HkGd9JVuMUK3UDuJDumx5n97KhEs+y5Q9htjrCDD+y5Q9gB4fEr7IAK7twh7GpesQMq2HOHsNscYQcf2HOHsAPCQ9ghCO7cIewIO/jBnjuE3eYIO/jAnjuEHRAewg5BcOcOYUfYwQ/23CHsNueGnf5zZTDqHJr5VSPsgPAQdgiCO3cIO8IOfrDnDmG3OVbs4AN77hB2QHgIOwTBnTuEHWEHP9hzh7DbHGEHH9hzh7ADwkPYIQju3CHsCDv4wZ47hN3mCDv4wJ47hB0QHsIOQXDnDmFH2MEP9twh7DZH2MEH9twh7IDwbBR2DEYTw0bYlYcdg1Hn0MyvGmG3OcIOPrDnDmEHhIcVOwTBnTuEHSt28IM9dwi7zRF28IE9dwg7IDyEHYLgzh3CjrCDH+y5Q9htrvawm+/KqNeVbqcjHTVu7h3K0Wn+X3Z/IpPZUfE5y7bBK/bcIeyA8BB2CII7dwg7wg5+sOcOYbe5esPuvkz6Y5keHsnW/l8i7IJkzx3CDggPYYcguHOHsCPs4Ad77hB2m6sz7Oa7IxmXRNdoHMmgG6ngO5B41JNeV6/m3ZQ9E4B2mJnbM/VrHMuw15Nu57Lc3nf3ncvuqJ88l/49RlPCzmf23CHsgPAQdgiCO3cIO8IOfrDnDmG3uXrDbiK7B2mA3Z+k0XX58mXpDu7II1VdOvxG8aM84EbxQTHm7Nsq7PrDWPb1RrWtP57KYXZbP34QLyJSv9Z4esof+cSpsucOYQeEx6+wm0XJZ/2TMYhlnm0G3LlD2NUcdvNYht2BxAeLd2SzaCjxnHdobWfPHcJuc42u2Ol4Gw5kcCeNufuTkTrXs5U3fS3eeCZHVqwlx1lhl2/TH/GcFPedjq3nso+Hl+y5Q9gB4fEu7AZxmnPzeCDRLLlZYSbR8TvgDHHnDmHXQNgN1Bs/dc6Z92SEHTR77hB2m6sz7JJY6+mPXC6Cyw6741bszO189U2v2FmrdO7qHit2YbHnDmEHhMfbsJtFA/WmMbmZbM8bLrk9l3jAyl6buHOHsGsg7NRJmP6DS/quLAm7WSyD5Dqc9FxMFvTUvuM4lshsU+dsN9lHvZFUb/ZnY/OT+NL7CJs9dwi7zdUadpoKr36vm567+jq6vUiGJsrUd9Vdc43d5dvJxzNT+oeu6GvprOvl9IrdWJ/j+rnKrscrOYap4S177hB2QHi8/ShmYTFuKeySG6zYtYg7dwi7ZsJOZZlE3Uh027krdvN4mETf8+Rjm3qf58m2rj5O7ZY8HqX/eJMcNRurN5LZbQTLnjuE3eZqD7vTkgdcdh9Bs+cOYQeEx88VOx14drQRdq3nzh3CrqmwU9Q5qIMsXVXXoWf+1b8j0TQNu7EVb2Mde9lt/XFOs68eg/iAsAucPXcIu80RdvCBPXcIOyA8nn4UU3/UsvhRzMVHNM1qHmHXJu7cIewaDDtFr9YN1DmqV+DMeWqv2FWF3Vjtn+yj7+NMsOcOYbe5YMMOZ4o9dwg7IDzeXmOn30gO8uvnVMSZFYHkjWGyQ3qdHdfYtYI7dwi7ZsMuua9/SmZs/SRbfX6esGI3Tq6PdVb49GMIlj13CLvNEXbwgT13CDsgPH6FHVDBnTuEXc1hB1Sw5w5htznCDj6w5w5hB4SHsEMQ3LlD2BF28IM9dwi7zRF28IE9dwg7IDyEHYLgzh3CjrCDH+y5Q9htzg07/efKYNQ5NPOrRtgB4SHsEAR37hB2hB38YM8dwm5zrNjBB/bcIeyA8BB2CII7dwg7wg5+sOcOYbc5wg4+sOcOYQeEh7BDENy5Q9gRdvCDPXcIu80RdvCBPXcIOyA8hB2C4M4dwm457ICmEXabI+zgA3vuEHZAeDYKOwajiWEj7MpX7BiMOoeLsNscYQcf2HOHsAPCw4odguDOHcKOFTv4h7DbHGEHH9hzh7ADwkPYIQju3CHsCDv4h7DbXK1hN9+VUS+S6eGRLP5fui+T/lDiR/a21Hx3JKP4kRzNxjKZHalfJ+mv9o73S7YhOPbcIeyA8BB2CII7dwg7wg7+Iew2V3fYTUZDiaZWiKkwGw0juVMSdjkTb4TdmWXPHcIOCA9hhyC4c4ewWw47BsOHQdhtpvaw240lGsZykJTYXHZHY4nvRBLPYhn2etLtdKRz+bY80o+7QZeHnT6uJ71uJ/n6C6GIINlzh7ADwkPYIQju3DFzkbBLz00Gw6dB2K2v/rA7kGk0kvjgSJ5n9w/isezq+/luIxmXBV3260GcPZ60X1/G00PCLnD23CHsgPD4FXazSAbxPLujvqnEA4lm2Z11zGMZdAZiPZV66uJ9hMWdO4QdYcfwdxB262si7I4OikF3sDtRv04lMit2atzcU7FWEXbTcRaG+jn5KOaZYM8dwg4Iz9kNu8FABtbBhF3Y3LlD2C3CjsHwcRB262kk7PRHKScjGQ7uJB+5nKuwG0dRHmus2LWPPXcIOyA84YRdsgqX/gui3jaL0tudTiQzfZz6ZjTQt82+aif7+CTsZovn6AxiSV5J7RvFapht6rny502Oy/Y3z41GuHOHsANwljQTduq2tdKmw243jqTX62bf945fsTt6rn+SZrq6p79+rrELnz13CDsgPMGE3Vx9s8kfsvfTtweDRahpWdipB1WwmUArrtjlz50EY7qP3tbJXjB5XMei/Tr2E6BW7twh7ACcJbWGHVDBnjuEHRCegD6KOZd4kK6qzXSAZf+aqEfysctitS0+hpk9Zxp2OvQWx5mwi6x4y1/PBKO1P2HXHHfuEHYAzhLCDj6w5w5hB4THr7DTQZavvOmQK7kuToeY2r4IPsVdTbPDTtFRpyNNr8CZ3ewVu6qw0/sXXgeNcecOYQfgLCHs4AN77hB2QHj8Cjsl+ThkyQrZYruOvWz1Ltuv8JFJzQm75L4+LjbXz2XHnRR2M+d1iLzGuHOHsANwlhB28IE9dwg7IDzehR1Qxp07hB2As4Swgw/suUPYAeEh7BAEd+4QdgDOEsIOPrDnDmEHhIewQxDcuUPYAThL7LDT/w1A/fcbg1HncBF2QHgIOwTBnTuEHYCzxA07oGmEHRAewg5BIOwAnGWEHXxD2AHhIewQBMIOwFlG2ME3hB0Qno3CjsFoYtgIOwBniR12+u83BsOHQdgBYWHFDkEg7ACcZSbs9N9rDIZPg7ADwkHYIQju3CHsAJwlOuz032cMho+DsAPCQNghCIQdAGAV/X5fOp0OMQKgdQg7BIGwAwCcREedCTr7NgC0AWGHIBB2AICTuDFH3AFoE8IOQSDsAAAnIewAtJlfYTePZdCJZJbdTc0k6gwknmd3LfN4IAP9wCySKDloLvGgk3y2Ph/pAwgcYQcAOIkdckQdgLbxLuyiwSCLtIyKtsEgKg27XB52hgq8KFb/i7OCsAMAnETHnP2Pu4QdgDbxL+xiHXcmyvQKnIq6OAu7ZEUv+wtb72OCrjLs0uPTh2bp8+p91Wukz1NcCZxF5puBu2qIphF2AICTEHYA2szDsJurwMqCK7s/N2Fn0R/DjKKTwi7bTz+WPZfeN4lCvZu+bQ5Ut5OPdbq34QXCDgBwEj6KCaDNvAw786sJukXY6evtFv8St0rYuc9V3Fc9X3ZHB6D9r3yEnV8IOwDASdyYI+4AtImfYZeE2UAG2cracuClIbZS2CW31ePmvtq3apWu+BzwCWEHADhOWcQRdgDaxNOwU6zQslfb7FW11cJOH5/99ExN76uOS5/DvpZOHWP9RE0izy+EHQDgJHbIEXUA2savsNuS/Jq99A7RFiDCDgBwEsIOQJud8bDLVuHskiPsgkTYAQBWoYNOf/KGqAPQNq1YsUP4CDsAwCp++tOfypMnT5LLLo6OjrKtAHD2EXYIAmEHAFgFYQegrQg7BIGwAwCsgrAD0FaEHYJA2AEAVkHYAWirtcNO07cZjDqHi7ADAJQh7AC01UZhBzSNsAMAlCHsALQVYYcgEXYAgDKEHYC2WjvsGAxfBmEHAHARdgDaaq2wYzB8G4QdAMBG2AFoq5XDjsHwdQAAYBB2ANpqpbADAAAIAWEHoK0IOwAAcGYQdgDairADAABnBmEHoK0IOwAAcGYQdgDairADAABnBmEHoK0IOwAAcGYQdgDairADAABnBmEHoK0IOwAAcGYQdgDairADAABnBmEHoK0IOwAAcGYQdgDairADAABnBmEHoK0IOwAAcGYQdgDairADAABnBmEHoK0IOwAAcGYQdgDairADAABnBmEHoK0IOwAAcGYQdgDairADAABnBmEHoK0IOwAAcGYQdgDairADAABnBmEHoK0IOwAAcGYQdgDairADAABnBmEHoK0IOwAAcGYQdgDairADAABnBmEHoK0IOwAAcGYQdgDairADAABnBmEHoK0IOwAAcGYQdgDairADAABnBmEHoK0IOwAAcGYQdgDairADAABnBmEHoK0IOwAAcGYQdgDairADAABnBmEHoK0IOwAAcGYQdgDairADAABnBmEHoK0IOwAAcGYQdgDairADAABnBmEHoK0IOwAAcGYQdgDairADAABnBmEHoK0IOwAAcKYQdQDaiLADAABnRr/fl06nk4zDw8NsKwCcfYQdAAAIngm6w0P91iYd/T5xB6A9CDsAABA0HXUm6HTM2YGn7z979izZDwDOMsIOAAAEzQ47E3OEHYC2IewAAEDw3LhbBB4fxQTQDoQdAAA4E9yPZBJ1ANqEsAMAAGcCYQegzQg7AABwJpRfa0fcAWgHwg4AAJwJrNgBaDPCDgAAnAms2AFoM8IOAACcCazYAWizlcLuzTffZDC8HVgo+/NhMHwZz58/z2YqXDdv3iz9M2OsP7rdbvIfKL9x40bp44z1B4FcNJlMSv+cGIymx8ph9/XXXzMY3g09N7HAucrwdehwIeyq6T+fJ0+elP7ZMRhNjvF4TNg5dNh99dVXpX9eDEZT46233iLsGGEPwq6Ic5Xh6yDsjkfYMXwdhN0ywo7h4yDsGMEPwq6Ic5Xh6yDsjkfYMXwdhN0ywo7h4yDsGMEPwq6Ic5Xh6yDsjkfYMXwdhN0ywo7h4yDsGMEPwq6Ic5Xh6yDsjkfYMXwdhN0ywo7h4yDsGMEPwq6Ic5Xh6yDsjkfYMXwdhN0ywo7h43iBsLsn1zud5McJdy7dkofWY/euZ9s7l+TWQ/uY1cfDW5eS57h+r/zxwrh3Pdn30q2H5Y8zzvQg7IqWztWHt+RS15yT2VDn7Kf2PgxGDYOwO1552H0or/d60tXn7cW35ZPHi8c/fL0nveTcvihvf/JYnhSOc8aHr0uv15WLb38ij+9Zt5+U7MtgOIOwW1Yedh/JjQvnpHfxh/IvX55wTq41PpI39fMmfw+o5/7jV/lzf/TmBTnXS/8e+OG//FG+Ou6c/uhNuXCuJxd/+C/yx6/U3yXu/bJjGEGN0wm7QsBVbV9vEHaMVQdhV1QZdibm1PmSvEm8fu8Uv+kwGCcPwu54J4ZdIeCqtlcMwo7xAoOwW9ZY2BUCrmp7xSDszvx44bC7dCkNsDyqksi6pLbrSUbYMbY/CLuiE8PO3CfsGDUPwu54x4XdpYsXk//odh5jSahdkosXu2r7CmFnDzvyCDvGCoOwW9ZE2L1s/h4ohNnL+d8DJ4adOwi7MzdefMXu+vXs13vJ9iTI1BvIW8nHMZ2wywLMDDfETMzZIw87J94K4VcWdvrNa/YcyUg+LmqvJqqRfc2MsAdhV3Ri2KnzRf8r/6VbnxYfz8+N6/LBB2ofa5vet/ANSh3zsvu4sy15veQbjDrv1DeifPv1D7LnqtiePI+1/dLb+fO87u7Pm9KgBmF3vGNX7K5dk2tq/nevva9i7Ik8fOcV6b38trx93Qm7h+/IKyra0pU8NczHN49dsbNX/9RQr/GV9ZFPBoOwW7Z22H10I4ko8z1Mx9SXVkz99sdDOd+3vsep8dovvpAvH6fPm6zMvfaavKbO1d5rv5Av1PMnx7zyI/nhtb70e1bY/fbHMjzft/4eyD6+eeyK3YfqNc5L3xzz7Z8nr5F//YwgximE3b3smrrrcu/rh3JLr9Tl26ywM1FnB6C674abedxcp7dZ2C2+tuS+fuOq7ydj81VEhp+DsCuqDLv8HFBDnRv5N5z8cXVufKru6/DT97PQenjr5eSbw/UPsm9AJuDycNMji7RCnKXP8YF+45k8d/GN4r3S7Vm8mWhLnie9b57nbed5GOEMwu54x4fd+/L+dX1N3TV5//GncusVte262VaxYlcVc07Ypdfqrbnqx2jVIOyWrRV2Jup0kH2lg2yQRJwOt690uGWPm+Ay180th90v5BfXz6nHXpNffPEbeWeoQuya2VaxYmfH2wfF17Ef++Xr59XXdFF+sO6qH8OrcSphZ8Lq+q00oHRsuWG3FGr6zaQ5vuTxqvBbKeyy+8eNwuoeI+hB2BVVhp1ZsXOH83gaXOrcckPOCb3CKp6JQescS4Y65lN1rpp/NbSPMc9T2H7S82SPXXrbWUFkBDEIu+OdFHaPP0iD7Nrbb6tztivX338sH5RFmbNqd1LYJat/+h9QzL68qWM4g7Bbtk7YfXRjEWpJyP32xzLQK2pZ6NmP65Azq3dlYffF+28kMfbaD38oL/f7ck3t8/4b+ngn7JxVu5PC7v/cUrF5Lvt74AfZ4/nvixHKOJ2wy26n19vplbtmw848VhpvdvSpN7L2T/NkhDkIu6K6wi5/3Nq29JFNM+xg069jvvE42z/I4q0y3NQb0sX+5iOajFAGYXe8E8Puyb3kdnq93XV5//ETueeEnflJmcfGnBN2yet8+Lr01bbk3HJ++iaDQdgtayzsvryX3E6vt7smv/jiS7mXrPAtws6s+C3F3DFhl99XX1f698APCj99kxHGOKWwW4RZ8f4i7I4NM+t++nj2kU7r8TzIykLQee48GrPITI+/ZX0EM/vaCbszMQi7ohcNOxNbJtJW+iim2aavz8ujzT7n9FDnnV4VsI9zt3+affQyeZ7s9UqeJ/m4JmEX3CDsjndy2D1Z/CcOCvdN2D2Ud/RHNLP7n2YrcSuFXfZab/TV8YQdwxmE3bJNPoqpA0pfV+d+FNPcTwProfxYf8RSneflYadC0PwnDgr3Tdj9Njs+vf/JX6WRuFLYZb+H5Fo7wi7IcWphZ+LKhNhS2Fn7mOGuqOVxaI087KzY08P8NM7SsNMjjzszzE/qXNwvvllkhDoIu6IXDjs9srgz58vSSlwectbjzrbkHPv0iTqvFx8JM9v0c1RtT587WznIHtPX1bn7c61deIOwO94qYWeum7v2vnrTqKJs6fq47HF9nly0f5LmMWGXx2Jybjkf62Qw1CDslh0bdvn3qnTV7Ev9DyUn/PCUxX+PbnHuVoWdCTLzeDHs1P7Z4/ZznRR26TV25uvmWrtQxwuEHYPhxyDsijhXGb4Owu545WHHYDQ/CLtl5WF3OmP5o5gMxmqDsGMEPwi7Is5Vhq+DsDseYcfwdRB2y7YXdtnqnPlPFJTuw2CUD8KOEfwg7Io4Vxm+DsLueIQdw9dB2C073bDLYi77mGb+350r3ZfBqB5rh91PfvKTpSdhMOoaNjMXCbsizlWGD8P205/+NAkWwu54JuzMn1fZnyuDsc2hmV+1n/3sZ8lcJOyWmbDTf0b6++3jx/zHvBn1Dtvf//3fJ/Nx47Db1Isci3Zz5w5hV45zFU1z5w5htxo37F4E5y82Zc8dwq6aG3ZHR0fZI+vjfMW63DlD2CE47twh7MpxrqJp7twh7FZD2MEH9twh7KoRdmiSO2cIOwTHnTuEXTnOVTTNnTuE3WoIO/jAnjuEXTXCDk1y5wxhh+C4c4ewK8e5iqa5c4ewWw1hBx/Yc4ewq0bYoUnunCHsEBx37hB25ThX0TR37hB2qyHs4AN77hB21Qg7NMmdM/6G3SySaJbdNsq2oXXcuUPYlWv6XB3Pngtv3dvNnTuE3WpqDbv7E5nMjuTI/r+jbBtax547hF21WsPuwY7szJ7JM/slyrahNdw5c2php2+vMgz7dinCDhXcuUPYlWv6XCXs4M4dwm41x4WdfY4eNwz7dinCDhXsuUPYVTsu7Oxz8rhh2LdLEXZwuHNmq2H30UcfyXe+85186G2GfbtU/mZxLvEg/Q81RhFhh+W5Q9iVa+RcHXatc5Wwazt37hB2q1k37H71q1/Jd7/73fz8tY/Rjx8rj7i57I560u12ktePpoRd29lzh7Crtm7Y/cM//IP82Z/9WX6+6mMN/fix8oj7XO5ePS/n1Pl648YNifYIu7Zy58xWw+7739dP2ZH/+q/01+9973vJvpp+/FjZm8V5PMhjbhapN4yEXeu5c4ewK7feudpVj7zouTpMYi7d1E1u876w3dy5Q9itZt2w+8u/7Kk/z8X5++d//j/yP1/9+LGysDuIRzLOVunuT/oynh4Sdi1nzx3Crtq6YfeDH1xQf4aL8/Uv/uK/53+m+vFjZWG3v3tV3po+TWLuwc4Fmex9Q9i1lDtnagm73/9+8zeLs2gg8by4De3mzh3CrtwmYfdi5+pQnavZO0G1jY9iwp07hN1qNg07c/5uEnbT8Ujig6P0nOWjmFDsuUPYVds07D77rJOct5uE3d7kquzuP5VDfY7yUcxWc+fMVsPuvffek3/6p47853925OLFi8k2w75dKl8FYMUORe7cIezK1X+usmKHInfuEHarWTfs7t69K//4j93k/H355W/J48ePs71XOH9ZsUMFe+4QdtXWDbu//du/VedrX/7jPzpy+fK35Msvv8z2XuF8ZcUODnfObP2Hp+jrbV7kzaK6IZF6Dq6xg+HOHcKu3LrnarfbTb7RvNC5qp6Da+xguHOHsFvNumGnR6/Xk3//983D7uj5fZn0e9JV569+fa6xgz13CLtqm/zwlAsXLsi//dvmYffs6IHsXDgvfXW+co1du7lzppaw++CDTun+wCbcuUPYldsk7DhXcZrcuUPYrWbTsPvlL/X5+78Lx+jHgE3Yc4ewq7Zp2P385/p8/Z/r/UMM4HDnTC1hd/u2/izxZ8l9w74NrMOdO4RduU3CLj1Xf5/cN+zbwDrcuUPYrWbTsPubv9HX2f0uuW/Yt4F12HOHsKu2adj99V935He/+7+Fc1w/BqzDnTNbDzs99I9SN7cN+zawDnfuEHblOFfRNHfuEHar2STs9ND/2QO9v75t2LeBddhzh7CrtknY6aH/swd6tU7fNuzbwCrcOXNqYbcuJi825c4dwq4c5yqa5s4dwm41x4Xdujh/sSl77hB21Y4Lu3VxvmJd7pwh7BAcd+4QduU4V9E0d+4Qdqsh7OADe+4QdtUIOzTJnTOEHYLjzh3CrhznKprmzh3CbjWEHXxgzx3Crhphhya5c4awQ3DcuUPYleNcRdPcuUPYrYawgw/suUPYVSPs0CR3zrxw2DEYTQwbYVeOc5Xhw7ARdqtxw67sz5XB2ObQzK8aYVfNDTvzA1EYjLqGjRU7BMedO4RdOc5VNM2dO4Tdalixgw/suUPYVWPFDk1y5wxhh+C4c4ewK8e5iqa5c4ewWw1hBx/Yc4ewq0bYoUnunCHsEBx37hB25ThX0TR37hB2qyHs4AN77hB21Qg7NMmdM4QdguPOHcKuHOcqmubOHcJuNYQdfGDPHcKuGmGHJrlzhrBDcNy5Q9iV41xF09y5Q9ithrCDD+y5Q9hVI+zQJHfOeB9283ggg3ie3aswiySarbhvhY2OzV63oGwbTpU7d9YJu06nk4w2qP9cHSbn0Mpv12djGc+eJ/vrY4fxQfFY9Xi3m/7/pUc0TfdFONy5Q9itptawm+/KqNeVbnKe3ZS9w6Ptnmf3JzKZHcmR/SJl29A4e+4QdtWaCLvP716VV+M/yNPDFU+aBzuyM3sm+7sVx6nHXzrfz7/f3vj4T/Js898GauTOGc/DbibRQAVXJ1K3jrFRTKnnftECI+wa4c6dVcMuDbp0pLfD1e12S98Y29trP1eH2bm66pszK+wWZuqNw0z9HvTNsYo9E4pziYdddW5VxZ11HLzhzh3CbjV1h91k9yCNKhVYozi7vS2EXTDsuUPYVas/7B7IztUrMuzelF9/80xWerUs7Baxpp5jZybPzAb1+NXd/Sz4Ppe7Vy/I+NdVcecci0a5c8bvsFORpFcA9GpaHks6nOJYvYHUb84HkiyymZhyomoWpW/gO4NY5nNzjL6v9htYj6U7Z8eqN5DmMROU+uuI1LC3aSXHRGo/+2vA6XPnjht26f93y8NEnR13+thQhqbDTX/d+k3xSbfrPld1hKXnavbuzA63/HYaaPrrS88V+3F9HqWP6fPyIHvO/L2eOofH5r66Pcx+n8Xz+Y4cqB1mY7MCEcmUgGiMO3cIu9U0FnbZ6t1Avf6gq86dwwOJRz3pJSvnxdW8+5N+uv3ybXmkDp6Z+3q/fXV+9nvJOXhz71CO9POa++q5o6mOuLnsjtJjFtuyJ4cX7LlD2FWrPeyyCPtD/Kq8NX0qz2ZWtBUCLg20c+ocu3HjhkR7anuy777cuaK299T5+sq78tnTQ3leCDt96F3Zee+RPHv0nly9cE56+vtpsu8jeU8/p3Xs/Z2X5Hxfn/s35OM/rRiaODXunPE67GZRFm46ykwtqTd7dox19HYTWOZXTd2u+mhl+ubTWbHLji18JNM8h/rVvOZSZGbHmG06Ju2nxelz546Zi3pu6jf3bsDZI3nzn+2jf9XHhjL011v2ZtiOOpverr8R62O3f64O1bmqXl8HlzoBkq+kJOz0Ry5NzOn4Koadvl21YqeY5843pNLnTM/npeOS285HPFEbd+4QdqtpLOz0it1wIN3BnSTW5rsjGcWPFo+Z1Tx3Zc95rN8byu39RQTOdyeye5DdV4/r1bmDeKTO+TTmdCSOpyoAzQHwgj13CLtqdYfdg52rsrv/VA7nd+XqW1N5ujcpDTv9cc0k/NTtBzsXZLL3jRWBx63YKSrskuc2jyuL57OOtY9znwO1cOeMx2Gn3qhlb8LTsVg9W4RTFmdmm/VYHoW54vNVhV3hOBOU6jE79vLDyo6xH8dWuHPHzMVNwk4fF8rQoeZn2KlzKfsa0qFXyfTm5bDLA9DaZj9+bNgV7qv9rNeMptM87HTo2dfmDe4Qdk1x5w5ht5q6wy6/xu6yCrpplEfa/clIYhNkej91bh6pBwrbk4dG0lPPYc65y7f35M6wJ73BbdlPai1bndP31fProJuOrefIYo+w84s9dwi7avWGnYqqC+eln51rySrZx5E6f5bDLg9AfV6Z7auGXX7/vuy8tHi99Nq7xbE69i6c6+Xn/ivvfkbY1cydM/6GnR1TSr4qprYnq3Sa2cfElBVVhZU3ZR5HeXylz1UedoXjrOe3t+WHWceYbazYbZ87d+yw0/RfLibc3Jizh96mjwllaHbEnXRbH1PXuWoHWL4qZ4WYWZ3bfMVOh9xAvRFM783jcR6IZSt2eTCiUe7cWTXser3FGwU9XuSNUogaW7HTrNW3qhW7wnatKszc59b3R+p83WPFLgT23Fk17M6fP184d58+fZo9cnbVGnZOgCWraOObMryTbstX5tSXsPmKnXrspSty57On8ui9HXnv0bMkDqtW7ExIohnunPE27JZW3KzVM31tTvqXhrOKZ0eXdd1b8jFK9Zj9l02UXM+TPaZ3z491jsseOy7s1A0xq4FcY7d97txxw07T/1/Yv2rp7UXUhUzHW9kbY3t7feeqtQqn5R+ZXKyqLa6nK9um5DGWXYOnzj19jd1i5W0gd7KoS6j9iz8x8yC5Pk9/hOzgefoc6TV2+jEirynu3Fkl7HTUHR0tztVe72yEnRurepjfl/uYvh7Gh7DT3w93zTV22bV0KXf7weK++vovX76c/QPT5eQjmQcqBPvJip66f/tmFnT3ZbJ03V329PCCPXdWCTsddU+fLs5dPc6fDzfuLly4kJ+TenzzzTel2994443awq6wCqclH5kcy81+P1lVy6+lS74EFWDZ6l7xGjv9eHb93WBxjd3ip2K+Iu+qqEsbr+ynZdrHWtfc5Y/r10Zd3Dnj9w9PKWOHFVrJnTtlYVfF/OXUBo2fq2g9d+64YVceO8U3hnrouPu7v/u7ZC6HOMzv1X3DZ37/ZdsfP35cT9gBFey544aduzKnhx11adClv/6v//W/Ss8LH4c5F3W8mZAzTNCVbf/iiy/qWbEDHO6cIewQHHfumLm4Sti1CWGHprlzxw47vaJTFnFm6JjTb6L0Pvq2Dh39fCGOsqgzqoKPsEPT7Lljh52en+7KnD10zJnQ07f/+Mc/Fs4Hn4f5/bnxZlQFH2GHprhzJrywQ+u5c4ewK8e5iqa5c6dsxc6Em/2r+0ZRb9cfJdJzOsTBih1CZM+dshU7E24m8uzbZuht+qOKZeeFj8N8zJQVO4TCnTOEHYLjzh3CrhznKprmzh037DQTPMVfF28M09jb/I2ST0zImWF+X+72Wq+xAyrYc8cNOy2Nu6fJr3remtt23KWxxzV2q+J8xbrcOUPYITju3CHsynGuomnu3CkLuzJVAdQW+s+HsEPT7LlTFnZV7Ovv+KmY6+F8xbrcOUPYITju3CHsynGuomnu3Fk17NqOsIMP7LmzTti1DWGHJrlzhrBDcNy5Q9iV41xF09y5Q9ithrCDD+y5Q9hVI+zQJHfOvHDYMRhNDBthV45zleHDsBF2q3HDruzPlcHY5tDMrxphV80Nu5B/gi8jzGFjxQ7BcecOYVeOcxVNc+cOYbcaVuzgA3vuEHbVWLFDk9w5Q9ghOO7cIezKca6iae7cIexWQ9jBB/bcIeyqEXZokjtnCDsEx507hF05zlU0zZ07hN1qCDv4wJ47hF01wg5NcucMYYfguHOHsCvHuYqmuXOHsFsNYQcf2HOHsKtG2KFJ7pwh7BAcd+4QduU4V9E0d+4Qdqsh7OADe+4QdtUIOzTJnTP+ht08lkFnIPE8u6/MouJ9tJM7dwi7cnWH3TweykCdoCu/XZ+NZTx7nuyvjx3GB8Vj1d8Bw243+w/dRjLNQ2Am43x7RwZ3nOPgDXfuEHarqTfs5rI76km3m55PN/cO5cj+v+b+REbq3CxsO4k6ZjI7qj6m8nH9tfSll30tybi5J4drvThOiz13CLtqtYbd53fl6vmx/PqbZ7J4lQeyc+GK3PnXp3LonCqf370qr8Z/kKfTt2Rn9kyezXbSX+0v8UHJNgTDnTN+h91gIINolm0g7JBy5w5hV67esJtJNFTnqwow1WqrscJuQUXbeKbe9Kub6u+AsQlFte8wua2jTv09cLDqi6BJ7twh7FZTa9itEGH1hZ2hAm+yKwcEXaPsuUPYVas77HZeHUn066eLEFNhdvVKJLf/8Gwp7HIm3gi7M8edM36HnYq6eTwQ03Z52CWredm/5g1imav7UayGuT+Lsn/tU28y00PVsdn+1jaEyZ07hF25WsNOnXM6vNLzNfvOYodbfnsu8TBdbYuiKNl38bh6bJCtxKnz+OBAn9dZ2KlzfKj+InievU7V9y74xZ07hN1q6g67/nhaWBW7P8lWzS7flkfTSEbjSAbdrnQ7N2Xv8Cg///L9ku0HEo96yX399UfTLNzsiDO3Z4ttxecwz23C7kB2r4xllmy/L5Mr6u8F/c5VP8/uHRn2eupruiy39w+T48qfC5uy5w5hV632sHtPfW8cxbL/VM/7z+Xu1bckvh1JPL0jo/Pn1Dmhz9135TP9uBt0edjp4y7IuV5Hbty4IdEeYRcqd854H3bqHZ8KtjTGylbskjeSKuqSlYLsficrwTwK1ZtB/RGxhH0bQXLnDmFXrs6wm0VDdW6qt1EmwJKNy2GnP3JpYm427jphp28fv2J3YB0P/7lzh7BbTa1hp+m463XTj2Gq6Cqs0OnHhrE8UhvmuyN1ni4iLd/PPl7d14E1nmYf6dQRVhV29mvZz2et2M13r6jXVM8131UxZ73e6I7sZ5GXhOl0LFd2H6UrFmpbcps3qi/EnjuEXbX6w+6R7I1fld39p3I4T+/vx2/Je48WK3b6I5hvTZ8uB1326/5u9rj6Uh/svCSTvT8RdoFy50wAYadkMbYIOx17+l/l0pGs1plYU/uaw8ztJPas/Qm7sLlzh7ArV1/YqfPRuuYtvR5Ob14OuzwArW32427Y5dfYDe6I/vRl6bV48JY7dwi71dQedpl0xeuy3H5krXbZwaVum0jTkddTMbc47zvquHTlzN6v9HYWdgfxKAlCc/zl2/vpfvZHMbOgO4jHsnuQfV32c+qVvMlMHt1Zfi7C7sXYc4ewq9ZE2D179F4h6B69t6N+3ZPx+fPSz86BGx9/Uxl2e5OraRjqc4iPYgbNnTNhhJ2io05fc6ebbB5H+cqdWbE7LuwK2xA8d+4QduVqO1fV+WV/PDJflctW2fR2szq38YpdjmvsQuLOHcJuNU2FnQ4mHUeXbz/KoindVhZ2xbhSp6u1mueu2Jnj8+3Wip39HAv2NXb6tvr7IbqzuOZOf53m46PqdrI6N616LmzKnjuEXbVGwu5wLnd3XpXR8Lb84emhzO/uyFvjSO7sp6t2rNi1hztnggm75L75KZnqjaT5Vzk9Tgw79Y0hHlj7E3lBc+cOYVeurnO1sAqn6ZU2dZI9f64jLP0X9MX1dGXblDzssmvw3GvsbPr5rRVCfiqmv9y5Q9itps6wS1be8vOpeK1cfo1dWdjp4DL7qWNv7u1JlFzz5lxjp1fU+s72POj0c5jr4uyfyGmHnf4ar6ivIfuYpaa/DvUmtpt83eZ6OnXMlbLnwqbsuUPYVWsm7NTktlbaPldh914cyblz/WT+63Hcit2zowey81K6usc1dmFz54y/YQdUcOcOYVeOcxVNc+cOYbeaOsMuBPcnVyQ+yD7mqRUCE9tizx3CrlqtYQc43DlD2CE47twh7MpxrqJp7twh7FZD2BnZKpz737Ij7Gphzx3Crhphhya5c4awQ3DcuUPYleNcRdPcuUPYrYawgw/suUPYVSPs0CR3zhB2CI47dwi7cpyraJo7dwi71RB28IE9dwi7aoQdmuTOGcIOwXHnDmFXjnMVTXPnDmG3GsIOPrDnDmFXjbBDk9w5Q9ghOO7cIezKca6iae7cIexWQ9jBB/bcIeyqEXZokjtnCDsEx507hF05zlU0zZ07hN1qCDv4wJ47hF01wg5NcufMC4Wdpm8zGHUOF2FXzg07BqOJYSPsVmOHnf5zKvtzZTC2OVyEXTU37B4/flz6Z8pgbGvYXjjsgKYRduXcsNvUixyLdnPnDmG3GjfsgKYRdtVYsUOT3DlD2CF4hF05wg5Nc+cOYbcawg6+IeyqEXZokjtnCDsEj7ArR9ihae7cIexWQ9jBN4RdNcIOTXLnDGGH4BF25Qg7NM2dO4Tdagg7+Iawq0bYoUnunCHsEDzCrhxhh6a5c4ewWw1hB98QdtUIOzTJnTOEHYJH2JWrO+zm8VAG8VxWfhs6G8t49jzZXx87jA+Kx6rHh9bz6X2ibH+EwZ07hN1qCDv4hrCrVm/YPZCdC+elf+Nj+ebZLL3d6UhHjcvv/qs8Pazv74sHOy/J+f4N+fhPz2Tz3zFelDtnCDsEj7ArV2/YzSQaDmTQiUS112qssFuYqTcOM/VmVt8k7ELnzh3CbjWEHXxD2FWrPex2ZvIsiborcudfn8pmLWeeZ52vdfmYBzs7MntG2DXJnTMvFHYMhi9Dz0nCrqjWsJtFSYTN40ESX+k2K9zy23OJh93kXxejKFqEWvK4emyQPtYZxHKQPaf5nlUIu3ksw272PNPn6uW70k3+1TKS6TSSgXpuHZlT3hQ3yp07hN1q7LBz/65jMJoahF25RsJubyJXd/edFbrP5e7V83Kuq78X3pCPv8mC68GOXJ2o74n9vvo+qVfY9mX36gU511P7vfKufPb0MPm+mq7AZcd+HMmV7JjesccQdk1z58zGYcdg+DYIu6I6w24WDSWeq7/mdXBFMyvWimFnx9ls3HXCTt9ebcVuHo/T19Ps/fTtwSANQ3MgGuPOHcJuNSbs9J8fg+HTIOyWNRF2+3euyFvTp2IvuH1+96q8Gv8hjT0dcyb81O0LV+4kMTZX+6THOatvzv5XrwylN7h9/DEKYdc8d85sFHYMhq8DC/rPQ5/w2w+7mUTZ6lk69EqZ3rwcdnkAWtvsx1cNO3UvWfnrDu7INB5IN/kXynQMVNgN3Ov10Ah37hB2q9F/Pu7fbQyGL4OwK2oq7PKIyzzYuSq7+9lHMz+/K1ffmspTHWFOtO3Mni1Fmo7CC+d6+ffRV155RQa3F5FYdoxG2DXPnTNrhx1Ohz5xgG3S34D1Cb/1sKv6yKQVZmZ1bq0VO736NzQrbzrkVBS6y3Bqn/Ew/fhn/ogThGiOO3cIOwBnjS/X2B23YndS2C22p3dXOkYh7JrnzhnCrgEm6sy/jADbUFfYFVbhNPNxzOcq0sx1cPn1dGXblDzssmvwso9S6hA0q3GDO4tVuMX2gdw5OEhX77LzST/vWj+dE1vjzh3CDnXr9/vJ3wusMmFbmgk79Rp6Ve78ufx73+V3P5bbo+wau8uL6+DKI01fj3dBzg3Mftl9fQ2deq4bN27I8M5JxxB2PnDnDGFXM33C2Nz7wGmpbcUOqODOHcIOddJRd3iov8d21G3iDttRe9jl/7mDZnOK/9yBH9w5Q9jVjLBDXQg7NM2dO4Qd6kTYoQ71hh1Q5M4Zwq5mhB3qQtihae7cIexQJ8IOdSDs0CR3zhB2DTAxp38l7LAthB2a5s4dwg51IuxQB8IOTXLnDGHXABN0RB22ibBD09y5Q9ihToQd6kDYoUnunCHsaubGHHGHbSHs0DR37hB2qIsddWYQd9gGwg5NcucMYVczwg51IezQNHfuEHaoQ1nUmaHj7tmzZ+o2cDoIOzTJnTOEXc0IO9TFDTsGo4lhI+xQB/cjmPr7rH2fsMNpcsPu8ePHpX8XMhjbGjbCrmaEHerCih2a5s4dwg510GFnx5w9CDucNlbs0CR3zhB2NSPsUBfCDk1z5w5hhzqZwLMH19jhtBF2aJI7Zwi7BtjfZIBtIezQNHfuEHaom5lzURS90BtuoAphhya5c4awa4B5o63feAPbQtihae7cIexQN8IO20bYoUnunCHsGkDYoQ6EHZrmzh3CDnUj7LBthB2a5M4Zwq4BhB3qUFvYzWMZdiOZFd6nz2TcHUh8sMKb99lYxurgyj2Pe7zssZOeD7Vx5w5hh7oRdti2esPuc7l79byc66aX89z4+Bt55r7cgx3ZmT1b2v753avyavwHeXrI371niTtnCLsGEHaoQ51hFw0GEtllN4tkOIgIu5Zz5w5hh7oRdti2WsOuItoKVtnnRA9kZ2cmz17sSVADd84Qdg0g7FCHWsMu1nEXyzx5rz6XeKiiLlYj2aDvd7MfGBTJNHlDv9im33DpKEwOtaPM3HZCbTbuStc819Qcmz6f3l54PjTKnTuEHepG2GHb6g67C5M9+cYElx1x5vZM/bp7R4bnzqnviZfl3c+eSrJIZ+37YOclOZ/8Nx5vyMd/eibp4dm2V27IjUFf+j19+1357Okh30895s4Zwq4BhB3qUG/YzWUWDdKQy+7Ps7Cbx0MZxgd5rA3VYwdqm4kvHWorh112fH47WynUr1H6fGiUO3cIO9SNsMO21X6NnY678/30Y5g64krC7sKVO2mQ6X1NCFqPX93dTz+SqbYlt6dvLbYlWLELhTtnCLsGEHaoQ91hVww6fXechN0sGmYrd+m+w2i2iECtLObs29Y2HXDd7NoCPQZZ2BVew34ONMqdO4Qd6kbYYdua+uEpD3YuyCS6IdHectjlsWcHWvb4/u5VuXCul38ffeXdz+TX41dldz9b2UsQdqFw5wxh1wDCDnWoPez0xyFVsA2yj2SasFt3xc6syOXb7VBzoy27z4qdn9y5Q9ihboQdtq2psEtW264MZXA7/YEoSejtpat49iqdvTq3HH6p5R+sQtiFwp0zhF0DCDvUof6wU2b6+rb0pgm7JPjMNXYq+tKfp6J/ambJNXZl2wsxt7iWrnhs1fOhSe7cIexQN8IO21Zn2OkAO38u+36qr4/7Zk8mF85LX92/cSNbvdPhNomk3+9n+6TX0OVhd6R/suYFOaevodPHffyn4rbkurpH8p6+P+AaO9+5c4awawBhhzrUFnZABXfuEHaoG2GHbWtsxW5NOgrfmj4trNQhfO6cIewaQNihDoQdmubOHcIOdSPssG3+h90D2dGrepdZfTuL3DlD2DWAsEMdCDs0zZ07hB3qRthh20JZscPZ5M4Zwq4BhB3qQNihae7cIexQN8IO20bYoUnunCHsGkDYoQ6EHZrmzh3CDnUj7LBthB2a5M4Zwq4BhB3qQNihae7cIexQN8IO20bYoUnunCHsGkDYoQ6EHZrmzh3CDnUj7LBtpxl2wIsi7BpA2KEObtgxGE0MG2GHuhF22DY37B4/flz6dyGDsY3hIuwaQNihDqzYoWnu3CHsUDfCDtvGih18Qtg1gLBDHQg7NI2wQ9MIO2wbYQefEHYNIOxQB8IOTSPs0DTCDttG2MEnhF0DCDvUgbBD0wg7NI2ww7a5YcdgND0Iu5rpP3TCDttG2KFphB2aRthh20zY6b/vGAxfBmFXI8IOdagt7OaxDLsDiQ8Wb9Rn0VDiOW/c286dO4Qd6kbYYdt02OnvtwyGb4Owqwlhhzro+VVb2A0GMohmYt6qE3bQCDs0jbAD0FaEXU0IO9Sh1rBTUTePBxLN0jfredglq3kd6XTUGMRycBBLFKth7s8i6SaPRzLN3ujPxl3p6setbQgTYYemEXYA2oqwqwlhhzrUHXbPZSZRNxLddmUrdvN4mETdQAXbTL2p1/e7+ji1W/KYOvD5bCzDeJ6u/Nm3ESTCDk0j7AC0FWFXE8IOdag/7JRZlMTYLBpkYTeTcbebrtipkazWWeE21jFn3U5iL9tXj8GdA8IuYIQdmkbYAWgrwq4mhB3q0EjYKXq1bjBIf5jKPB7nK3dmxe64sNMrdvk2BI+wQ9MIOwBtRdjVhLBDHZoKu+S++SmZKtTSa+hWW7FTKSjx0FrhmxJ5ISPs0DTCDkBbEXY1IexQh9rCDqhA2KFphB2AtiLsakLYoQ6EHZpG2KFphB2AtiLsakLYoQ6EHZpG2KFphB2AtiLsakLYoQ6EHZpG2KFphB2AtiLsakLYoQ6EHZpG2KFphB2AtiLsakLYoQ6EHZpG2KFphB2AtiLsakLYoQ522Gn6NoNR53ARdqgbYQegrQi7mhB2qIMbdkDTCDvUjbAD0FaEXU0IO9SBsINvCDvUjbAD0FaEXU0IO9SBsINvCDvUjbAD0FaEXU0IO9TBDjsGw5dB2KFOhB2AtiLsaqLf3BB22DYTdgyGb4OwQ10IOwBtRdjVhLBDHfT8YjB8HYQd6kDYAWgrwq4mhB0AANtH2AFoK8KuJoQdAADbR9gBaCvCriaEHQAA20fYAWgrwq4mhB0AANtH2AFoK8KuJoQdAADbR9gBaCvCriaEHQAA20fYAWgrwq4mhB0AANtH2AFoK8KuJoQdAADbR9gBaCvCriaEHQAA20fYAWgrwq4mhB0AANtH2AFoK8KuJoQdAADbR9gBaCvCriaEHQAA20fYAWgrwq4mhB0AANtH2AFoK8KuJoQdAADbR9gBaCvCriaEHQAA20fYAWgrwq4mhB0AANtH2AFoK8KuJoQdAADbR9gBaCvCriaEHQAA20fYAWgrwq4mhB0AANtH2AFoK8KuJoQdAADbR9gBaCvCriaEHQAA20fYAWgrwq4mhB0AANtH2AFoK8KuJoQdAADbR9gBaCvCriaEHQAA20fYAWgrwq4mhB0AANtH2AFoK8KuJoQdAADbR9gBaCvCriaEHQAA20fYAWgrwq4mhB0AANtH2AFoK8KuJoQdAADbR9gBaCvCriaEHQAA20fYAWgrwq4mhB0AANtH2AFoK8KuJoQdAADbR9gBaCvCriaEHQAA20fYAWgrwq4mhB0AANtH2AFoK8KuJoQdAADbR9gBaCvCriaEHQAA20fYAWgrwq4mhB0AANtH2AFoK8KuJoQdAADbR9gBaCvCriaEHQAA20fYAWgrwq4mhB0AANtH2AFoK8KuJoQdAADbR9gBaCvCriaEHQAA20fYAWgrwq4mhB0AANtH2AFoK8KuJoQdAADbR9gBaCvCriaEHQAA20fYAWgrwq4mhB0AANtH2AFoK8KuJoQdAADbR9gBaCvCriaEHQAA20fYAWgrwq4mhB0AANtH2AFoK8KuJoQdAADbR9gBaCvCriaEHQAA20fYAWgrwq4mhB0AANtH2AFoK8KuJoQdAADbR9gBaCvCriaEHQAA20fYAWgrwq4mhB0AANtH2AFoK8KuJoQdAADbR9gBaCvCriaEHQAA29fv96XT6cjh4WG2BQDagbCrif4mYwYAADh9OupM0Nm3AaANqIwtW8TcYhB4AACcPsIOQJtRF1tmR93ybQAAcBrKQo64A9Am1MWWEXYAANTDDTnCDkCbUBdbZsecPQg7AABOlx1yRB2AtqEuauDGHVEHAMDp0zGnv8eaQdgBaBMKoyZ23BF2AACcPsIOQJtRGDUh7AAA2C4+igmgzSiMmpiwI+oAADh9ZSFH3AFoEyqjJqzYAQCwXW7IEXYA2oTCqAkrdgAAbJcdckQdgLbpvPnmm8KoZ+ioK9vOqB4A0AY3b94s/TuQsf7odrvJ99sbN26UPs5YfxDIQBiSsPv6668ZDO+GnpsA0AY67J48eVL6dyGD0eQYj8eEHRAIwo7h7SDsALQFYcfwdRB2QDgIO4a3g7AD0BaEHcPXQdgB4SDsGN4Owg5AWxB2DF8HYQeEg7BjeDsIOwBtQdgxfB2EHRCO6rB7eEsuddIfz3/9Xsnjx41715PjLt16WLxdtu+647Sfj+HtIOwAtEVl2H34uvR66U95TMc1ef/xE3ni7qfHw3fkFbVv99r78vgFIvHhO69Ir9uVa+9/pZ6nfJ98fPiG9NVrXvzRJyfvywhyEHZAOCrD7uGtS/k3krUj6rTDLnuOJDAJu9YMwg5AW5SGXUmoffj663JP3SbsGHUNwg4IR0XYPZRbl1TUXbou15Nfb8nDpX2OGaccX/eup4G59sohI+hB2AFoi7KwM4F18e0Vo4mwY2xhEHZAOMrDLvsYpg6zdOXuktx6aD1uwu369fzjmoX4s8POjTzrI575dmeb/Vwm6tyRP1/2/Evb7ccuXSr/Or++J9fNdj2u31scy2h8EHYA2qJ0xc76GOZS3JmIy75/JY9/mm27eFEuqjBLHrv4tnzyOHte5xj7MRNz+fdDNfKwc+It2VfdTx6/VxJ2yev0rNf5kfzm8T15vW9tU/H5lfm6GF4Pwg4IR2nYFWLODTM98mBKI8l8bNONreS+fdsE3HErgCWvV1ixK3luE2Tm68hX9szjztdpHk+f14lWhjeDsAPQFlXX2LnBVQw4K9r0MOGWbV+svD1Wz/2hvK5jy6zm2at7H7yexJmJrQ/f6KvjNg27D+UNHXAm3AqRd1F+9Bv1tVi/P4b/g7ADwlESdtnHMLNvIvmwY8yNLxNsZsWrJL707aUAtEfZSl72WFXYLX1Es+LrcMPPPLe5b29j+DMIOwBtUfnDU7KxCLyLcu3aJemq25WreCbeshW/ZL977g9hyYba9/3rvULILYJwg7DL9l16HWtc/NFv0n2t3x/D30HYAeFYDrulVTUTetbK1guGXR5i2TCB5u7vPn7aYVfYR4/jVhIZtQ/CDkBbnBR2epjgunjxYhJ26Uqctc8xYffJrexYNwbV+PD10ws789hiBc8advQlH888/vfL8GMQdkA4lsKuLH6WtpkYqviIYyHO7NtL0ahHMRyPe3037Aq33f30sebrPC7skpFda0fYeTUIOwBtUf7DU16Xdz41PwHzobzzSk8F3UV5+/235WUVSJUfxSxbsTMf37T/cwkfviPvPHwin5pgTKLPvM7yRzFLP6rprtjlH71Ur/NV9rHL7HXS30f2UU3CLphB2AHhcMKuZHVODxNIJnzMfXuYVTLr8bL4yuMuG/Y+yf1LZfHl/JAT+3HnaykcZx6rCDuz4pcOrrXzbRB2ANqiPOzS4Fp8n1JR90kWSybisscK8VYWdnl0LY6xn8/E2uK1rLDLotI8vlgxLAm7/Gsz19XpcVEdo143f36utQtpEHZAOEp/eMqJw401BmMLg7AD0BarfBSTwWhiEHZAOAg7hreDsAPQFoQdw9dB2AHhIOwY3g7CDkBbEHYMXwdhB4Rjs7BjMGoYhB2AtiDsGL4Owg4IRx52P/nJT5ZOZgajrmEzc5GwA9AWJux++tOfEniMRoZmftV+9rOfJXORsAPCsRR2L+JFj0c7ufOGsAPQNm7YvQi+F2NT9twh7IDwEHZonDtvCDsAbUPYwQf23CHsgPAQdmicO28IOwBtQ9jBB/bcIeyA8BB2aJw7bwg7AG1D2MEH9twh7IDwEHZonDtvCDsAbUPYwQf23CHsgPAcG3b6/irDsG8vmUUSzbLbtqrtaA133hB2ANrmuLAz32tPGoZ9u9T9iUxmR3L0PLuvlW1D69hzh7ADwrN22H300Ufyne98Jx96m2HfXkLYoYI7bwg7AG2zbtj96le/ku9+97v592L7GP34sQg7VLDnDmEHhGftsPv+9zvqkY7813+lv37ve99L9tX045UKATeXeNCRTqcjUUTYtZ07bwg7AG2zbtj95V/25PnzxffiP//z/6Hup1WmHz9WHnFz2R31pNvtJK8fTQm7trPnDmEHhGfjsPv97zcPu3k8yG/PIhV3hF2rufOGsAPQNpuGnflevEnYHcQjGWerdPcnfRlPDwm7lrPnDmEHhGftsHvvvffkn/6pI//5nx25ePFiss2wby+xwm4WDSSep7eLK3loI3feEHYA2mbdsLt796784z92k+/FL7/8LXn8+HG29wnfi7Us7KbjkcQHR5K0HB/FhGLPHcIOCE8jYceKHWzuvCHsALRNE2HHih1c9twh7IDwrB12euhr414k7NQdidRzcI0dNHfeEHYA2mbdsNOj1+vJv//75mF39Py+TPo96arvxVxjB82eO4QdEJ6Nw+6DDzpLx9i3gVW584awA9A2m4bdL3+pvxf/78Ix+jFgE/bcIeyA8Gwcdrdvd+Szzz5L7hv2bWBV7rwh7AC0zaZh9zd/o3+Ayu+S+4Z9G1iHPXcIOyA8G4WdHh999FF+27BvA6ty5w1hB6BtNgk7PfR/z07vr28b9m1gHfbcIeyA8Bwbduvimwk24c4bwg5A2xwXduviezE2Zc8dwg4ID2GHxrnzhrAD0DaEHXxgzx3CDggPYYfGufOGsAPQNoQdfGDPHcIOCA9hh8a584awA9A2hB18YM8dwg4Iz1LYMRhNDBthB6Bt3LBz/45kMLY9NPOrRtgB4WHFDo1z5w1hB6BtWLGDD+y5Q9gB4SHs0Dh33hB2ANqGsIMP7LlD2AHhIezQOHfeEHYA2oawgw/suUPYAeEh7NA4d94QdgDahrCDD+y5Q9gB4SHs0Dh33hB2ANqGsIMP7LlD2AHhqS/s5rEMOgOJ59l9ZRYV76Od3HlD2AFomybCbr47klH8SI6eZxtOcn8ik9mRHMQlx6nH+r2udDqdZNzcO1z9eeENe+4QdkB46g27wUAG0SzbQNgh5c4bwg5A29QfdvdlMhrKoBvJ9PBIVmqwLOwWwaaeYzKTI71BPTaKD7LH5rI76ks0rYo76zh4xZ47hB0QnnrDTkXdPB6Iabs87JLVvPRf+TqDWObqfhSrYe7PouxfASMxWTiLsv2tbQiTO28IOwBtU3vYZSH2KB7JWMfazIq2QsDpSOtJr9tJvsZoavY9kHiYbu9cvi3708gKO33Yrkx2s/vq9qjfk67+nn35ptwcdKVrjssOuD/pp8/VuSl7q4YmTp09dwg7IDy1h51KMhVsaYyVrdgl4aeibpDto+93shLMo1CF3sAcaN9GkNx5Q9gBaJu6w+7+ZCTxgQooHV3jmRxNx6Vhpz+umYSfuq3ja6xX4fIIrFqxU8zz5htS6fPtSWQ/po69oo491Hft26idPXcIOyA8DYSdksXYIux07Ol/qUtHslpnhZs5zNxOYs/an7ALmztvCDsAbVNv2KkgMytoybgpe3tRHnB22OUBmByWbV8l7Ar3i693c68Ydjr27OvzLt/eJ+waYs8dwg4ITzNhp+io09fc6Sabx1G+cmdW7I4Lu8I2BM+dN4QdgLapNeycCEtW0SL9D67ptnxlTt3ebMVOh9xQ4v00COe7E9nN4rBqxc6EJJplzx3CDghPY2GX3Dc/JVOFmvmXOj1ODDuZSzyw9ifygubOG8IOQNvUGXaFVTgt+dik+v7a7Saravm1dMkOi9W2fHsedtn1d4P0GrvFqttluZ1FXUKFW/EnZu7LnVE/PS55EfU8V8w1dvpxfqJmU+y5Q9gB4akv7IAK7rwh7AC0Tb0fxQTK2XOHsAPCQ9ihce68IewAtA1hBx/Yc4ewA8JD2KFx7rwh7AC0DWEHH9hzh7ADwkPYoXHuvCHsALQNYQcf2HOHsAPCQ9ihce68IewAtA1hBx/Yc4ewA8JD2KFx7rwh7AC0DWEHH9hzh7ADwkPYoXHuvCHsALQNYQcf2HOHsAPCUwg7Td9mMOocLsIOQNu4Yef+PclgbHto5leNsAPCsxR2QNMIOwBtw4odfEDYAWEj7OAdwg5A2xB28AFhB4SNsIN3CDsAbUPYwQeEHRA2wg7eIewAtA1hBx8QdkDYCDt4h7AD0DaEHXxA2AFhI+zgHcIOQNs0EXbz3ZGM4kdy9DzbcJL7E5nMjuQgLjluviujfk+6nY50Ojdl7/BI0ofvyyTf3pHLt/dXfz3UjrADwkbYwTuEHYC2qT/sVHCNhjLoRjLNI+wEWdgtwkw9x2QmR3qDCrvJ7kH6mNpvFOvbMxV1Q4n3V3x+NI6wA8JG2ME7hB2Atqk97LL4ehSPZKxjbWZFWyHg5rI76kmv20m+xmhq9j2QeJhu71y+LfuPYhmbsNOrd2MVfNNxFnj6eRACwg4IWyHsGAxfBmEHoE3qDrv7k5HEB0fy3IqwsrDTH9dMwk/dvj/py3h6aEXg8St2eTTqbQgCYQeELQ87BsO3QdgBaIt6w6543VtyTdxetIgwK+zyAEwOy7ZXhF1+jZ1ewVPb1r6GD42z5w5hB4QnCTsGw9cBAG1Qa9hlK2omuJJVuSiSQbYtX5lLem2DFbucDkiusQsJYQeEjbBjeD0AoA3qDLvCKpyWfBwzkqjbTVbc8mvpkh0Wq3v59jzssuvvBs41djZ7JU8Nfiqm3wg7IGyd7FcAANCQej+KCZQj7ICwEXYAADSMsIMPCDsgbIQdAAANI+zgA8IOCBthBwBAwwg7+ICwA8JG2AEA0DDCDj4g7ICwEXYAADSMsIMPCDsgbIQdAAANI+zgA8IOCBthBwBAw9yw02+wGYw6h2Z+1Qg7IDyEHQAADWPFDj4g7ICwEXYAADSMsIMPCDsgbIQdAAANI+zgA8IOCBthBwBAwwg7+ICwA8JG2AEA0DDCDj4g7ICwEXYAADSsibCb745kFD+So+fZhpPcn8hkdiQHcclx6rFRfJBv0889Vvuu/NzwAmEHhI2wAwCgYfWH3X2ZjIYy6EYyPTySlforC7tFrKnnmMzkSG8g7M4Ewg4IG2EHAEDDag+7LMQexVmAzaxoKwTcXHZHPel1O8nXGE3NvgcSD9Ptncu3ZX8aVYfdfFdG/Z50O+o59g5lOu6nx3Vuyp6OSvV6V8ZREpnJ/fQp0ADCDggbYQcAQMPqDrv7k5HEByqidHSNZ3I0HZeGnR1o9yd9GU8PrQhcbcVuvjuRXf1a+gF7P3N7Npb+6I7sH2YHozGEHRA2wg4AgIbVG3YqyLIVtE4ybsreXrRYYbPCLg/A5LBs+5php+7J7qgvvcFt2bszlF6vm71uRy7f3k/C7oo6lq5rHmEHhI2wAwCgYbWGXVmERZEMsm35ypy6vfKKnV75G8XyKHlSHXIqCB85H6tU++jr+qI9E3wZ9fUQdn4g7ICwEXYAADSszrArrMJpyccxI4m63WQVL7+WLtlhsbqXb8/DLrv+bnBb9tXOOgL72WpcshKXvcBi+2W5vf9IYr16l1xjl15zp5+PsPMDYQeEjbADAKBh9X4UEyhH2AFhI+wAAGgYYQcfEHZA2Ag7AAAaRtjBB4QdEDbCDgCAhhF28AFhB4SNsAMAoGGEHXxA2AFhI+wAAGgYYQcfEHZA2Ag7AAAaRtjBB4QdEDbCDgCAhrlhp99gMxh1Ds38qhF2QHgIOwAAGsaKHXxA2AFhI+wAAGgYYQcfEHZA2Ag7AAAaRtjBB4QdEDbCDgCAhhF28AFhB4SNsAMAoGGEHXxA2AFhI+wAAGhYrWE335VRL5Lp4ZE8zzaJ3JdJfyjxI3tbar47klH8SI5mY5nMjtSvk/RXe8f7JdsQHMIOCBthBwBAw+oOu8loKNHUCjEVZqNhJHdKwi5n4o2wO7MIOyBshB0AAA2rPex2Y4mGsRwkJTaX3dFY4juRxLNYhr2edDsd6Vy+LY/0427Q5WGnj+tJr9tJvv5CKCJIhB0QNsIOAICG1R92BzKNRhIfHMnz7P5BPJZdfT/fbSTjsqDLfj2Is8eT9uvLeHpI2AWOsAPCRtgBANCwJsLu6KAYdAe7E/XrVCKzYqfGzT0VaxVhNx1nYaifk49ingmEHRA2wg4AgIY1Enb6o5STkQwHd5KPXM5V2I2jKI81Vuzah7ADwkbYAQDQsGbCTt22Vtp02O3GkfR63WS17qQVu6Pn+idppqt7XGN3NhB2QNgIOwAAGlZr2AEVCDsgbIQdAAANI+zgA8IOCBthBwBAwwg7+ICwA8JG2AEA0DDCDj4g7ICwEXYAADSMsIMPCDsgbIQdAAANI+zgA8IOCBthBwBAw9yw02+wGYw6h2Z+1Qg7IDyEHQAADWPFDj4g7ICwEXYAADSMsIMPCDsgbIQdAAANI+zgA8IOCBthBwBAwwg7+ICwA8JG2AEA0DDCDj4g7ICwEXYAADSMsIMPCDsgbIQdAAANqzfs5rI76km325FOpyM39w7l6Hn20DruT6Tf6ybP8ULPA28QdkDYCDsAABpWa9ipIJvMjqwIuy+TyUyOVqoya1/1PKP4IHseHYt9iaZVcbfOa6AphB0QNsIOAICG1R12/fFUDpPISlfvenr17vJtefQollGvJ129Cqfvm4AbRzLoDmRwuZuu9OnHppEVdvqpdmWym91Xt0d98zw35eZgcdy+2mE26aev2bkpe4dHQu75gbADwkbYAQDQsNqvscs+Rpl+fLJ8NW2+O5KxXtmbqX2HcRp5lSt2io65cdXz7ElkHrOPy24fFg9BQwg7IGyEHQAADWvqh6fcn/RlPLWiS4ebWWkz182psFsE3DFhV7jvPs/iNXTo2dfmXb69T9h5grADwkbYAQDQsKbCLo2xWKLIRNdEdg/Sj0baK3Ynh50OuaHE++ZY93mKK3bFa/zgC8IOCBthBwBAw+oMOx1ava5ZMdPXuB1IrK+zG6TXzfXcn3RZCLvsmrylfS/L7SzqEireij8xc1/ujPrJcftHB8kPWkmvseOnafqEsAPCRtgBANCwxlbsAAthB4SNsAMAoGGEHXxA2AFhI+wAAGgYYQcfEHZA2Ag7AAAaRtjBB4QdEDbCDgCAhhF28AFhB4SNsAMAoGGEHXxA2AFhI+wAAGiYHXbPnz9P3mAzGHUOF2EHhIewAwCgYW7YAU0j7IDwEHYAADSMsINvCDsgPIQdAAANI+zgG8IOCA9hBwBAwwg7+IawA8JD2AEA0DA77H7yk58wGF4Mwg4IC2EHAEDDTNiV/bRCBqPJQdgB4SDsAABomA67N998k8HwchB2QAhE/j95GziM2cpK9gAAAABJRU5ErkJggg==;" vertex="1" parent="1">
          <mxGeometry x="80" y="750" width="627" height="407.62" as="geometry" />
        </mxCell>
        <mxCell id="YyMQZ12qbrtMW_TAwCsF-1" value="Ejemplo de registros:&lt;br&gt;26 - Api-Always-On&lt;br&gt;24 - SGI-GO!" style="text;whiteSpace=wrap;html=1;fontSize=14;" vertex="1" parent="1">
          <mxGeometry x="28.5" y="610" width="151" height="90" as="geometry" />
        </mxCell>
        <mxCell id="YyMQZ12qbrtMW_TAwCsF-2" value="Ejemplo de registros:&#xa;Â  Â  Â  Â  8 - 1 - Vacaciones&#xa;Â  Â  Â  Â  13 - 24 - CMB" style="text;whiteSpace=wrap;html=1;fontSize=14;" vertex="1" parent="1">
          <mxGeometry x="-200" y="320" width="180" height="70" as="geometry" />
        </mxCell>
        <mxCell id="YyMQZ12qbrtMW_TAwCsF-3" value="Ejemplo de registros:&#xa;Â  Â  Â  Â  260 - terminalestrella@metbus.cl - 24 - 1 - 10396144 - RARAYAA - 2&#xa;Â  Â  Â  Â  2642 -Â  hfranchini@metbus.cl - 29 - 0 - 10411854 - HFRANCHINI - 0" style="text;whiteSpace=wrap;html=1;fontSize=14;" vertex="1" parent="1">
          <mxGeometry x="-520" y="65" width="490" height="70" as="geometry" />
        </mxCell>
        <mxCell id="YyMQZ12qbrtMW_TAwCsF-4" value="Ejemplo de registros:&lt;br&gt;&amp;nbsp; &amp;nbsp; &amp;nbsp; &amp;nbsp; 25 - 2018-05-09... - pc - null - 8 - Vacaciones Contingencia&lt;br&gt;&amp;nbsp; &amp;nbsp; &amp;nbsp; &amp;nbsp; 46 - 2018-06-05 .. - pc - robertrojas@gmail.com - 12 - Re Contrato" style="text;whiteSpace=wrap;html=1;fontSize=14;" vertex="1" parent="1">
          <mxGeometry x="184" y="180" width="446" height="60" as="geometry" />
        </mxCell>
        <mxCell id="YyMQZ12qbrtMW_TAwCsF-5" value="Ejemplo de registros:&lt;br&gt;&lt;span style=&quot;white-space: pre;&quot;&gt;	&lt;/span&gt;22 -2018-06-05... - ROBERT-PC - saraalguerno @gmail.com -JEFE RRHH&lt;br&gt;&amp;nbsp; &amp;nbsp; &amp;nbsp; &amp;nbsp; 24 -2018-06-06... - pc - robertrojas @gmail.com - Terminales" style="text;whiteSpace=wrap;html=1;fontSize=14;" vertex="1" parent="1">
          <mxGeometry x="138" y="-70" width="560" height="70" as="geometry" />
        </mxCell>
        <mxCell id="YyMQZ12qbrtMW_TAwCsF-6" value="Ejemplo de registros:&lt;br&gt;&amp;nbsp; &amp;nbsp; &amp;nbsp; &amp;nbsp; 50 - 2018-06-05...&amp;nbsp; - pc - robertrojas@gmail.com - 22 - 21&lt;br&gt;&amp;nbsp; &amp;nbsp; &amp;nbsp; &amp;nbsp; 51 - 2018-06-05...&amp;nbsp; - pc - robertrojas@gmail.com - 23 - 22" style="text;whiteSpace=wrap;html=1;fontSize=14;" vertex="1" parent="1">
          <mxGeometry x="780" y="65" width="520" height="70" as="geometry" />
        </mxCell>
        <mxCell id="YyMQZ12qbrtMW_TAwCsF-10" style="edgeStyle=orthogonalEdgeStyle;rounded=0;orthogonalLoop=1;jettySize=auto;html=1;entryX=0.5;entryY=0;entryDx=0;entryDy=0;shadow=0;fontSize=14;exitX=0.468;exitY=0.006;exitDx=0;exitDy=0;exitPerimeter=0;" edge="1" parent="1" source="kg-4zczay7WPdVNOa1s0-6" target="YyMQZ12qbrtMW_TAwCsF-3">
          <mxGeometry relative="1" as="geometry">
            <mxPoint x="100" y="20" as="sourcePoint" />
            <Array as="points">
              <mxPoint x="100" y="31" />
              <mxPoint x="100" />
              <mxPoint x="-275" />
            </Array>
          </mxGeometry>
        </mxCell>
        <mxCell id="YyMQZ12qbrtMW_TAwCsF-11" style="edgeStyle=orthogonalEdgeStyle;rounded=0;orthogonalLoop=1;jettySize=auto;html=1;shadow=0;fontSize=14;" edge="1" parent="1" source="kg-4zczay7WPdVNOa1s0-21" target="YyMQZ12qbrtMW_TAwCsF-2">
          <mxGeometry relative="1" as="geometry">
            <Array as="points">
              <mxPoint x="10" y="355" />
              <mxPoint x="10" y="355" />
            </Array>
          </mxGeometry>
        </mxCell>
        <mxCell id="YyMQZ12qbrtMW_TAwCsF-12" style="edgeStyle=orthogonalEdgeStyle;rounded=0;orthogonalLoop=1;jettySize=auto;html=1;entryX=0.5;entryY=0;entryDx=0;entryDy=0;shadow=0;fontSize=14;" edge="1" parent="1" source="kg-4zczay7WPdVNOa1s0-23" target="YyMQZ12qbrtMW_TAwCsF-1">
          <mxGeometry relative="1" as="geometry" />
        </mxCell>
        <mxCell id="YyMQZ12qbrtMW_TAwCsF-14" style="edgeStyle=orthogonalEdgeStyle;rounded=0;orthogonalLoop=1;jettySize=auto;html=1;shadow=0;fontSize=14;" edge="1" parent="1" source="kg-4zczay7WPdVNOa1s0-27" target="YyMQZ12qbrtMW_TAwCsF-6">
          <mxGeometry relative="1" as="geometry">
            <Array as="points">
              <mxPoint x="740" y="100" />
              <mxPoint x="740" y="100" />
            </Array>
          </mxGeometry>
        </mxCell>
      </root>
    </mxGraphModel>
  </diagram>
</mxfile>
